<?xml version="1.0" encoding="UTF-8" standalone="no"?>
<svg
   xmlns:dc="http://purl.org/dc/elements/1.1/"
   xmlns:cc="http://creativecommons.org/ns#"
   xmlns:rdf="http://www.w3.org/1999/02/22-rdf-syntax-ns#"
   xmlns:svg="http://www.w3.org/2000/svg"
   xmlns="http://www.w3.org/2000/svg"
   xmlns:sodipodi="http://sodipodi.sourceforge.net/DTD/sodipodi-0.dtd"
   xmlns:inkscape="http://www.inkscape.org/namespaces/inkscape"
   version="1.1"
   id="Layer_1"
   x="0px"
   y="0px"
   width="50"
   height="50"
   viewBox="0 0 50 50"
   enable-background="new 0 0 205 45"
   xml:space="preserve"
   sodipodi:docname="brand.svg"
   inkscape:version="1.0.2 (e86c870879, 2021-01-15)"><metadata
   id="metadata25"><rdf:RDF><cc:Work
       rdf:about=""><dc:format>image/svg+xml</dc:format><dc:type
         rdf:resource="http://purl.org/dc/dcmitype/StillImage" /><dc:title></dc:title></cc:Work></rdf:RDF></metadata><defs
   id="defs23"><filter
     style="color-interpolation-filters:sRGB"
     inkscape:label="Duochrome"
     id="filter2207"><feColorMatrix
       type="luminanceToAlpha"
       result="colormatrix1"
       id="feColorMatrix2187" /><feFlood
       flood-opacity="1"
       flood-color="rgb(0,0,0)"
       result="flood1"
       id="feFlood2189" /><feComposite
       in2="colormatrix1"
       operator="out"
       result="composite1"
       id="feComposite2191" /><feFlood
       flood-opacity="1"
       flood-color="rgb(223,223,215)"
       result="flood2"
       id="feFlood2193" /><feComposite
       in2="colormatrix1"
       result="composite2"
       operator="in"
       id="feComposite2195" /><feComposite
       in="composite2"
       in2="composite1"
       k2="1"
       k3="1"
       operator="arithmetic"
       result="composite3"
       id="feComposite2197"
       k1="0"
       k4="0" /><feColorMatrix
       in="composite3"
       type="matrix"
       values="2 -1 0 0 0 0 2 -1 0 0 -1 0 2 0 0 0 0 0 1 0 "
       result="colormatrix2"
       id="feColorMatrix2199" /><feComposite
       in="colormatrix2"
       in2="composite3"
       operator="arithmetic"
       k2="0"
       result="composite4"
       id="feComposite2201"
       k1="0"
       k3="0"
       k4="0" /><feBlend
       in="composite4"
       in2="composite3"
       mode="normal"
       result="blend"
       id="feBlend2203" /><feComposite
       in2="SourceGraphic"
       operator="in"
       id="feComposite2205"
       result="fbSourceGraphic" /><feColorMatrix
       result="fbSourceGraphicAlpha"
       in="fbSourceGraphic"
       values="0 0 0 -1 0 0 0 0 -1 0 0 0 0 -1 0 0 0 0 1 0"
       id="feColorMatrix2319" /><feColorMatrix
       id="feColorMatrix2321"
       type="luminanceToAlpha"
       result="colormatrix1"
       in="fbSourceGraphic" /><feFlood
       id="feFlood2323"
       flood-opacity="1"
       flood-color="rgb(0,0,0)"
       result="flood1" /><feComposite
       in2="colormatrix1"
       id="feComposite2325"
       operator="out"
       result="composite1" /><feFlood
       id="feFlood2327"
       flood-opacity="1"
       flood-color="rgb(220,218,226)"
       result="flood2" /><feComposite
       in2="colormatrix1"
       id="feComposite2329"
       result="composite2"
       operator="in" /><feComposite
       in2="composite1"
       id="feComposite2331"
       in="composite2"
       k2="1"
       k3="1"
       operator="arithmetic"
       result="composite3"
       k1="0"
       k4="0" /><feColorMatrix
       id="feColorMatrix2333"
       in="composite3"
       type="matrix"
       values="2 -1 0 0 0 0 2 -1 0 0 -1 0 2 0 0 0 0 0 1 0 "
       result="colormatrix2" /><feComposite
       in2="composite3"
       id="feComposite2335"
       in="colormatrix2"
       operator="arithmetic"
       k2="0"
       result="composite4"
       k1="0"
       k3="0"
       k4="0" /><feBlend
       in2="composite3"
       id="feBlend2337"
       in="composite4"
       mode="normal"
       result="blend" /><feComposite
       in2="fbSourceGraphic"
       id="feComposite2339"
       operator="in" /></filter><filter
     style="color-interpolation-filters:sRGB"
     inkscape:label="Duochrome"
     id="filter2229"><feColorMatrix
       type="luminanceToAlpha"
       result="colormatrix1"
       id="feColorMatrix2209" /><feFlood
       flood-opacity="1"
       flood-color="rgb(0,0,0)"
       result="flood1"
       id="feFlood2211" /><feComposite
       in2="colormatrix1"
       operator="out"
       result="composite1"
       id="feComposite2213" /><feFlood
       flood-opacity="1"
       flood-color="rgb(223,223,215)"
       result="flood2"
       id="feFlood2215" /><feComposite
       in2="colormatrix1"
       result="composite2"
       operator="in"
       id="feComposite2217" /><feComposite
       in="composite2"
       in2="composite1"
       k2="1"
       k3="1"
       operator="arithmetic"
       result="composite3"
       id="feComposite2219"
       k1="0"
       k4="0" /><feColorMatrix
       in="composite3"
       type="matrix"
       values="2 -1 0 0 0 0 2 -1 0 0 -1 0 2 0 0 0 0 0 1 0 "
       result="colormatrix2"
       id="feColorMatrix2221" /><feComposite
       in="colormatrix2"
       in2="composite3"
       operator="arithmetic"
       k2="0"
       result="composite4"
       id="feComposite2223"
       k1="0"
       k3="0"
       k4="0" /><feBlend
       in="composite4"
       in2="composite3"
       mode="normal"
       result="blend"
       id="feBlend2225" /><feComposite
       in2="SourceGraphic"
       operator="in"
       id="feComposite2227"
       result="fbSourceGraphic" /><feColorMatrix
       result="fbSourceGraphicAlpha"
       in="fbSourceGraphic"
       values="0 0 0 -1 0 0 0 0 -1 0 0 0 0 -1 0 0 0 0 1 0"
       id="feColorMatrix2341" /><feColorMatrix
       id="feColorMatrix2343"
       type="luminanceToAlpha"
       result="colormatrix1"
       in="fbSourceGraphic" /><feFlood
       id="feFlood2345"
       flood-opacity="1"
       flood-color="rgb(0,0,0)"
       result="flood1" /><feComposite
       in2="colormatrix1"
       id="feComposite2347"
       operator="out"
       result="composite1" /><feFlood
       id="feFlood2349"
       flood-opacity="1"
       flood-color="rgb(220,218,226)"
       result="flood2" /><feComposite
       in2="colormatrix1"
       id="feComposite2351"
       result="composite2"
       operator="in" /><feComposite
       in2="composite1"
       id="feComposite2353"
       in="composite2"
       k2="1"
       k3="1"
       operator="arithmetic"
       result="composite3"
       k1="0"
       k4="0" /><feColorMatrix
       id="feColorMatrix2355"
       in="composite3"
       type="matrix"
       values="2 -1 0 0 0 0 2 -1 0 0 -1 0 2 0 0 0 0 0 1 0 "
       result="colormatrix2" /><feComposite
       in2="composite3"
       id="feComposite2357"
       in="colormatrix2"
       operator="arithmetic"
       k2="0"
       result="composite4"
       k1="0"
       k3="0"
       k4="0" /><feBlend
       in2="composite3"
       id="feBlend2359"
       in="composite4"
       mode="normal"
       result="blend" /><feComposite
       in2="fbSourceGraphic"
       id="feComposite2361"
       operator="in" /></filter></defs><sodipodi:namedview
   pagecolor="#ffffff"
   bordercolor="#666666"
   borderopacity="1"
   objecttolerance="10"
   gridtolerance="10"
   guidetolerance="10"
   inkscape:pageopacity="0"
   inkscape:pageshadow="2"
   inkscape:window-width="2560"
   inkscape:window-height="1369"
   id="namedview21"
   showgrid="false"
   fit-margin-top="0"
   fit-margin-left="0"
   fit-margin-right="0"
   fit-margin-bottom="0"
   inkscape:zoom="15.218318"
   inkscape:cx="18.171232"
   inkscape:cy="34.385354"
   inkscape:window-x="0"
   inkscape:window-y="0"
   inkscape:window-maximized="1"
   inkscape:current-layer="g1054"
   inkscape:document-rotation="0" />

<g
   id="g1294"
   style="fill:#009688;stroke:none"
   transform="matrix(0.01785219,0,0,-0.01785219,-47.11309,131.16436)"><path
     id="path4-8"
     d="m 4612.0386,6246.7282 c 32.2491,-52.061 73.4132,-99.9056 123.2667,-141.2296 44.9116,-37.2823 106.5008,-72.5898 162.987,-93.9479 14.7502,-5.595 203.1487,-49.4523 420.2361,-97.9166 l 393.2504,-87.7507 181.7228,203.6633 -203.7586,45.6998 c -112.3291,25.1954 -203.9994,46.6713 -203.804,47.542 0.4618,1.0396 7.3731,8.4093 15.7859,16.3539 8.4127,7.9448 26.6494,28.0908 40.2583,44.9303 68.7906,82.43 112.4231,182.1598 126.2294,286.5258 30.1415,227.1423 -71.4962,444.749 -264.3143,565.7372 -34.2468,21.6289 -85.1637,45.3942 -120.7857,56.8138 -12.7685,4.2358 -197.0077,46.2463 -409.3062,93.6363 l -385.8459,86.0898 -181.7252,-203.6594 203.7609,-45.7037 c 112.3289,-25.1956 203.9995,-46.6712 203.8041,-47.542 -0.4617,-1.0397 -7.3731,-8.4093 -15.7858,-16.354 -8.4127,-7.9446 -26.6495,-28.0906 -40.2582,-44.9303 -161.5362,-194.6157 -172.233,-463.7189 -45.7177,-667.958 z m 215.84,137.0869 c -9.5202,15.293 -17.5827,30.9088 -23.4968,45.954 -25.5472,64.4918 -29.974,126.3028 -13.2646,193.6632 13.1753,54.6629 31.8118,91.868 64.8482,131.1014 77.594,92.1162 200.1922,132.0698 317.3552,103.961 56.4045,-13.5661 103.1777,-38.4643 147.4057,-78.7942 27.006,-24.3492 71.2481,-94.1772 81.7299,-128.9957 32.6272,-106.3212 12.5155,-218.4192 -54.3649,-301.5062 -108.0711,-134.2101 -304.4174,-157.3883 -443.5936,-52.0903 -27.6751,20.9837 -55.6744,53.0621 -76.6191,86.7068 z"
     style="fill:#939296;fill-opacity:1;stroke-width:0.336093;stroke-miterlimit:4;stroke-dasharray:none;filter:url(#filter2207)"
     inkscape:connector-curvature="0"
     transform="matrix(0.53388263,0,0,0.53388263,1273.8601,2432.8039)" /><g
     transform="matrix(-0.678375,0.10672202,-0.10672202,-0.678375,9933.4572,8780.9799)"
     style="fill:#008dad;fill-opacity:1;filter:url(#filter2229)"
     id="g1725"><g
       id="g1054"><path
         id="path2-3"
         d="m 7617.7176,7386.7857 c -3.347,-1.3401 -9.164,-8.3018 -13.5561,-15.2413 -6.8549,-12.1315 -6.5263,-20.7163 5.7183,-110.2918 7.1598,-53.5764 13.9543,-100.7161 15.3133,-104.5606 3.142,-10.6889 24.75,-24.5292 37.0998,-24.3388 5.7,0.088 16.2157,4.1153 23.4284,9.3805 16.3474,11.8483 16.5012,20.87 0.8666,134.445 -13.9542,100.716 -18.5212,111.3831 -46.5237,112.2399 -9.0176,0.2905 -19.0071,-0.7225 -22.3466,-1.6329 z"
         inkscape:connector-curvature="0"
         style="fill:#939296;fill-opacity:1;stroke-width:0.451671" /><path
         id="path4-6"
         d="m 7647.3587,7090.7512 c -11.2116,-12.2792 -11.7455,-37.9056 -0.534,-53.3882 10.6777,-14.9487 44.3123,-16.5504 57.1255,-2.1355 12.2794,13.347 11.7455,45.38 -0.5339,56.0576 -13.347,12.2793 -45.38,11.7455 -56.0576,-0.5339 z"
         inkscape:connector-curvature="0"
         style="fill:#939296;fill-opacity:1;stroke-width:0.533883" /><path
         id="path6-7"
         d="m 8368.9187,7236.1832 c -11.7453,-10.1438 -19.2197,-33.1007 -46.9816,-135.6061 -29.3636,-111.0477 -32.033,-125.4625 -26.1603,-139.8774 12.8132,-30.4312 56.5916,-34.7023 73.6758,-6.9404 10.1438,16.0165 65.6676,229.0357 65.6676,251.4587 0,39.5073 -37.3718,56.5916 -66.2015,30.9652 z"
         inkscape:connector-curvature="0"
         style="fill:#939296;fill-opacity:1;stroke-width:0.533883" /><path
         id="path8-5"
         d="m 6654.6216,7223.9039 c -16.5504,-16.0165 -17.0842,-36.8379 -2.1356,-60.8626 24.0248,-39.5073 129.1996,-185.2572 140.4112,-193.7994 27.7619,-22.4231 67.2692,-2.6694 67.2692,33.6346 0,14.4149 -13.8809,37.3718 -72.0741,119.0559 -39.5073,56.0576 -77.413,104.6409 -83.8196,108.3781 -18.6859,10.1438 -35.7702,8.0083 -49.6511,-6.4066 z"
         inkscape:connector-curvature="0"
         style="fill:#939296;fill-opacity:1;stroke-width:0.533883" /><path
         id="path10-3"
         d="m 7989.3282,7192.4049 c -14.9488,-14.9488 -16.5504,-25.0925 -24.0247,-164.4359 -5.8727,-109.9799 -3.7372,-127.0641 15.4826,-137.2078 16.5503,-9.076 42.1767,-6.9404 53.3882,4.271 12.2794,12.2794 14.4149,28.2958 21.8892,169.7747 5.8728,111.0477 4.2711,123.8608 -19.7536,134.5384 -19.7537,9.076 -33.1007,6.9405 -46.9817,-6.9404 z"
         inkscape:connector-curvature="0"
         style="fill:#939296;fill-opacity:1;stroke-width:0.533883" /><path
         id="path12-5"
         d="m 7677.256,7000.5251 c -14.4148,-2.6694 -28.2957,-20.8214 -28.2957,-36.8379 0,-6.4067 4.8049,-17.6182 11.2115,-25.6264 21.8892,-27.7619 68.8708,-11.7454 68.8708,24.0247 0,26.1603 -24.0247,43.7784 -51.7866,38.4396 z"
         inkscape:connector-curvature="0"
         style="fill:#939296;fill-opacity:1;stroke-width:0.533883" /><path
         id="path14-6"
         d="m 7205.0546,7049.8582 c -10.1438,-8.0082 -13.8809,-16.0165 -13.8809,-29.3635 0,-19.2199 90.2261,-232.239 105.1749,-248.7894 12.2792,-13.8809 46.4477,-12.8131 60.8625,1.6017 9.0761,9.076 10.6777,16.0165 8.5422,33.6346 -3.7372,32.033 -91.294,227.434 -107.8443,242.3827 -17.0843,14.9487 -34.7024,14.9487 -52.8544,0.5339 z"
         inkscape:connector-curvature="0"
         style="fill:#939296;fill-opacity:1;stroke-width:0.533883" /><path
         id="path16"
         d="m 7689.6017,6892.6849 c -4.5192,-1.9698 -11.9323,-7.0514 -16.0687,-11.7169 -9.917,-10.1179 -9.1744,-17.8233 17.594,-208.0702 19.8924,-140.5659 20.6729,-144.4149 31.2226,-153.1865 19.0766,-15.2481 46.9602,-8.4348 56.1761,13.6307 2.9319,6.9681 -1.9475,51.6544 -17.2033,164.4989 -22.5103,165.6067 -24.8363,178.6961 -35.7875,188.2352 -9.3337,7.6262 -25.6677,10.56 -35.9332,6.6088 z"
         inkscape:connector-curvature="0"
         style="fill:#939296;fill-opacity:1;stroke-width:0.397188" /><path
         id="path18"
         d="m 8843.5403,7003.9443 c -17.618,-4.271 -21.3553,-9.6099 -88.0906,-119.0558 -68.8707,-113.717 -75.8112,-132.4029 -53.3882,-154.826 13.347,-13.3471 42.7106,-13.881 57.6593,-1.0677 16.0165,13.347 134.0046,209.8158 137.7417,229.0355 5.3389,26.6942 -25.0924,52.8545 -53.9222,45.914 z"
         inkscape:connector-curvature="0"
         style="fill:#939296;fill-opacity:1;stroke-width:0.533883" /><path
         id="path20"
         d="m 9312.2893,6952.6916 c -10.6775,-5.8728 -67.803,-65.1337 -157.4953,-162.8342 -19.2199,-20.2876 -25.6264,-31.4991 -25.6264,-43.7784 0,-23.4909 8.0082,-35.2363 27.7618,-42.1768 13.8811,-4.8049 19.7537,-4.2711 33.6348,3.2034 17.618,10.1437 166.0374,164.4357 177.249,184.7233 10.6776,18.686 8.0081,40.5751 -6.4067,54.4561 -13.8809,14.4147 -30.9652,16.5503 -49.1172,6.4066 z"
         inkscape:connector-curvature="0"
         style="fill:#939296;fill-opacity:1;stroke-width:0.533883" /><path
         id="path22"
         d="m 6857.497,6935.6073 c -7.4744,-6.9404 -13.3471,-19.2198 -13.3471,-26.6941 0,-17.6182 22.4231,-40.0412 40.0413,-40.0412 17.6181,0 40.0412,22.423 40.0412,40.0412 0,17.6181 -22.4231,40.0412 -40.0412,40.0412 -7.4744,0 -19.7537,-5.8727 -26.6942,-13.3471 z"
         inkscape:connector-curvature="0"
         style="fill:#939296;fill-opacity:1;stroke-width:0.533883" /><path
         id="path24"
         d="m 8281.362,6897.7016 c -17.6182,-12.2793 -16.5503,-45.9139 2.6694,-60.8625 25.0925,-19.7537 60.3287,-2.1356 60.3287,30.4313 0,33.1007 -34.7023,50.1849 -62.9981,30.4312 z"
         inkscape:connector-curvature="0"
         style="fill:#939296;fill-opacity:1;stroke-width:0.533883" /><path
         id="path26"
         d="m 6913.5546,6849.1183 c -13.347,-17.0842 -11.2115,-42.1767 3.7373,-53.3882 24.5586,-18.6859 65.6675,0 65.6675,29.3635 0,36.304 -46.9816,52.3205 -69.4048,24.0247 z"
         inkscape:connector-curvature="0"
         style="fill:#939296;fill-opacity:1;stroke-width:0.533883" /><path
         id="path28"
         d="m 7973.3117,6839.5085 c -25.6264,-25.0926 -8.5422,-66.7354 27.7619,-66.7354 17.0842,0 38.9734,22.4231 38.9734,40.0412 0,7.4744 -5.8727,19.7537 -13.347,26.6942 -6.9405,7.4743 -19.2199,13.347 -26.6942,13.347 -7.4743,0 -19.7536,-5.8727 -26.6941,-13.347 z"
         inkscape:connector-curvature="0"
         style="fill:#939296;fill-opacity:1;stroke-width:0.533883" /><path
         id="path30"
         d="m 8261.6083,6803.7383 c -15.4825,-8.5421 -18.6859,-14.9488 -18.6859,-37.3718 0,-22.4231 14.4149,-36.304 38.4396,-36.304 34.7023,0 49.6511,47.5156 22.423,68.8709 -16.0164,12.8131 -26.6941,13.8809 -42.1767,4.8049 z"
         inkscape:connector-curvature="0"
         style="fill:#939296;fill-opacity:1;stroke-width:0.533883" /><path
         id="path32"
         d="m 6985.0949,6770.6376 c -20.2875,-9.076 -30.9652,-34.1685 -22.9569,-54.99 5.8727,-14.9487 238.1117,-345.422 263.2041,-373.7178 16.0165,-18.6859 41.109,-23.4907 61.9304,-12.2793 14.4149,7.4744 22.9569,37.9056 16.0166,55.5239 -2.6695,8.0081 -63.5321,96.6327 -134.5385,196.4687 -103.5733,146.2838 -132.4029,183.1217 -146.2839,188.9945 -20.8214,8.5421 -17.0842,8.5421 -37.3718,0 z"
         inkscape:connector-curvature="0"
         style="fill:#939296;fill-opacity:1;stroke-width:0.533883" /><path
         id="path34"
         d="m 7968.5067,6740.2063 c -27.7618,-21.8893 -10.1436,-68.8709 26.1603,-68.8709 17.0842,0 34.1685,16.0165 37.9056,35.7702 2.6694,13.8809 0.5339,19.7536 -10.1437,30.4312 -16.5503,16.5505 -34.7024,17.6182 -53.9222,2.6695 z"
         inkscape:connector-curvature="0"
         style="fill:#939296;fill-opacity:1;stroke-width:0.533883" /><path
         id="path36"
         d="m 7344.398,6725.7914 c -5.3388,-5.3388 -9.0761,-17.6181 -9.0761,-26.6941 0,-32.5668 35.2363,-49.6511 62.9982,-29.8974 14.9487,10.6776 16.5503,44.3122 2.1356,57.1254 -13.3471,12.2793 -45.3801,11.7454 -56.0577,-0.5339 z"
         inkscape:connector-curvature="0"
         style="fill:#939296;fill-opacity:1;stroke-width:0.533883" /><path
         id="path38"
         d="m 6617.2498,6716.7154 c -14.4149,-13.8809 -17.0842,-35.7701 -6.4065,-53.9221 9.0759,-16.0165 167.1052,-163.3682 186.8589,-174.5796 30.9651,-17.0843 62.4642,1.6016 62.4642,37.3718 0,20.2875 -3.2033,24.0247 -125.4625,137.7417 -78.4806,73.1419 -92.3616,79.0146 -117.4541,53.3882 z"
         inkscape:connector-curvature="0"
         style="fill:#939296;fill-opacity:1;stroke-width:0.533883" /><path
         id="path40"
         d="m 8229.0415,6695.3601 c -6.4066,-4.271 -13.8809,-14.4148 -17.6182,-22.4231 -3.2032,-8.0081 -30.9651,-109.9799 -61.9303,-225.8323 -48.0495,-179.3846 -56.0577,-213.5531 -51.7867,-227.9679 l 5.3389,-17.6181 h -42.1768 -42.1767 v 17.6181 c 0,9.076 4.805,99.3023 10.6777,200.206 6.9405,117.9881 8.5421,187.3928 5.3388,195.935 -16.0165,42.7106 -80.0824,35.2362 -88.0906,-11.2115 -1.6017,-8.5422 -6.4066,-86.4891 -10.6777,-172.9782 -4.2711,-86.4889 -9.6099,-173.5117 -11.2116,-193.2655 l -3.2032,-36.3039 h -42.1768 c -22.957,0 -42.1767,1.0677 -42.1767,2.1356 0,17.618 -24.0247,159.097 -28.2957,168.7068 -12.8132,26.6942 -54.4561,27.7619 -71.5403,2.1355 -8.0083,-12.8131 -8.5422,-19.7536 -2.6694,-71.0064 3.7371,-30.9651 8.0082,-66.7353 10.1437,-79.0145 l 3.2033,-22.957 h -50.7188 -51.2527 l -70.4726,161.7665 c -38.4395,88.6244 -75.2774,166.5713 -81.1501,173.5118 -14.4149,14.9487 -40.5751,15.4826 -59.7949,0.5339 -25.0924,-19.7537 -20.2875,-40.0413 46.9816,-194.3334 l 60.3289,-138.8094 -45.914,-1.6017 c -25.0924,-1.0677 -46.9817,-3.7371 -48.5833,-6.9404 -2.1355,-2.6695 -11.2116,4.8049 -20.8214,16.5503 -14.9487,18.6859 -19.7536,21.3553 -37.9056,21.3553 -26.6942,0 -42.7106,-14.4148 -42.7106,-38.4395 0,-12.2793 7.4743,-28.8297 24.0246,-52.8543 21.8892,-32.5669 23.4908,-36.838 18.1521,-49.6511 -3.7372,-7.4744 -8.5422,-13.881 -11.2116,-13.881 -2.1355,0 -64.0659,56.0577 -136.674,124.3947 -152.1566,143.0804 -158.0291,147.8854 -177.249,147.8854 -31.4991,0 -54.9899,-35.2362 -42.7107,-64.5998 3.7373,-8.0082 73.142,-77.4129 155.3599,-154.2921 81.6841,-76.879 148.9534,-142.0127 148.9534,-144.1483 0,-2.1355 -12.8133,-26.1602 -27.762,-52.8543 -20.2875,-35.2362 -30.4313,-48.0495 -35.7701,-45.914 -4.271,1.6017 -71.0064,41.6429 -147.8855,88.6246 -76.8791,46.9817 -146.8177,87.5567 -155.3599,89.6922 -30.4312,9.0761 -60.3287,-13.347 -60.3287,-44.3122 0,-22.957 25.0925,-42.7106 154.826,-121.1913 68.8708,-41.643 134.5384,-81.6841 145.7499,-88.6246 l 20.2875,-12.8132 -18.6858,-33.1006 c -10.1438,-18.1521 -21.8893,-35.2363 -25.6264,-37.9058 -4.8049,-2.6694 -66.7354,11.7455 -168.7069,38.9735 -88.6246,24.0247 -169.2408,43.2445 -178.8507,43.2445 -24.0247,0 -40.0412,-12.8132 -44.3123,-34.7024 -3.7371,-20.2876 5.8728,-40.5751 24.0248,-50.7188 5.8727,-2.6694 78.4808,-23.4909 161.7664,-45.9139 83.2857,-22.4231 152.1566,-41.6429 153.2243,-42.7106 1.0678,-0.5339 -9.6099,-21.8892 -23.4908,-46.4478 l -25.0925,-45.38 -32.5668,-2.1356 c -25.0925,-2.1355 -34.1686,-4.8049 -41.6429,-14.4149 -14.9487,-18.152 -12.8131,-41.109 4.2711,-58.1932 8.0082,-8.0082 13.881,-17.6181 13.3471,-21.3552 -1.0678,-3.7373 5.8726,-19.7537 14.4148,-35.2363 9.0761,-15.4827 16.5503,-29.8975 16.5503,-32.033 0,-1.6016 -5.8727,-3.2033 -13.347,-3.2033 -33.1008,0 -47.5156,-48.0494 -20.8214,-68.8708 8.0082,-6.4066 17.6181,-11.2115 21.3552,-11.2115 13.3471,0 33.1007,11.7453 37.9057,22.9569 4.805,10.1437 7.4744,7.4744 25.0925,-24.5586 11.2115,-20.2875 19.2198,-37.9057 17.0842,-39.5073 -1.6016,-1.6016 -88.6245,-33.6347 -193.7993,-71.5403 -202.8755,-72.6081 -215.1547,-79.0145 -215.1547,-111.0476 0,-19.7536 17.6181,-41.6429 36.8378,-45.9139 11.7455,-2.6695 60.3288,12.8132 203.4094,64.0659 103.5732,36.8379 189.5282,65.6676 190.5961,64.5998 1.0677,-1.0677 -9.076,-6.4066 -22.957,-11.7454 -52.3204,-19.7536 -69.9387,-52.3205 -45.38,-82.7518 14.4149,-18.152 42.1767,-15.4827 92.8955,8.0082 22.957,10.6777 44.8462,19.2198 49.1173,19.2198 3.7371,0 12.8131,-10.6776 20.2875,-23.4908 11.2115,-19.7537 11.7454,-24.5586 5.3389,-32.5668 -19.2199,-26.6942 5.3387,-66.7354 41.1089,-66.7354 6.9404,0 18.152,-13.8809 36.8379,-45.9139 14.9486,-25.0925 27.228,-46.4478 27.228,-47.5156 0,-1.0678 -46.9817,-51.7865 -104.1071,-113.1831 -57.6593,-60.8626 -105.7089,-116.3864 -107.3104,-122.7929 -8.0083,-30.9653 13.347,-60.3288 44.3122,-60.3288 21.3553,0 35.2363,12.2793 159.6309,145.75 l 58.7271,62.4642 21.8892,-37.9057 21.8892,-37.9056 -10.1438,-17.0842 c -14.9487,-24.5586 -13.347,-53.3883 3.7372,-66.7353 26.6941,-20.8215 51.2527,-10.6778 82.7518,34.7023 l 16.5503,24.0247 74.2098,-1.0678 c 53.9221,-0.5338 74.2097,-2.1355 72.608,-6.4066 -1.0677,-3.7372 -5.3388,-24.0247 -9.076,-45.38 -5.8728,-31.499 -5.8728,-41.1089 0,-51.7866 8.5421,-16.0165 33.1007,-25.0925 50.7189,-18.6859 17.6181,6.9405 26.1602,21.8892 42.1767,75.2774 l 13.8809,45.914 31.4991,1.0677 c 30.9652,1.0678 31.4991,1.0678 35.2362,-14.9486 2.1356,-9.0761 9.6099,-21.3553 17.0843,-27.2281 26.6941,-20.8214 59.7949,-9.6099 71.0064,23.4908 8.5421,26.6942 24.5586,24.0248 28.2958,-4.8049 16.0164,-117.9881 62.4642,-434.5804 65.6676,-442.0549 4.271,-11.2114 28.8296,-25.0924 44.3122,-25.0924 5.8727,0 17.6181,6.4066 26.6942,13.881 12.8131,10.6776 16.5503,18.1519 16.5503,32.5668 0,10.6777 -10.6777,96.6328 -24.0247,191.6638 -13.3471,94.4973 -25.6264,188.9945 -27.2281,209.8159 l -3.7372,37.9057 h 132.9368 c 73.142,0 135.6062,2.1355 138.8095,4.2711 3.2033,2.1355 11.2115,13.8809 18.6859,26.6941 l 12.8132,23.4908 13.881,-16.0165 c 8.0082,-9.0759 56.0576,-74.7435 106.2426,-146.2838 111.0475,-156.4276 113.717,-159.097 138.8095,-159.097 25.0925,0 41.6429,12.2793 45.9139,34.7024 4.271,23.4908 2.1355,26.1603 -97.7006,167.1052 -43.2444,60.8626 -95.0311,134.0045 -114.7848,163.3682 l -35.7701,52.3204 16.0165,27.7619 c 9.0761,14.9487 20.2876,35.2362 24.5586,44.8462 4.805,9.076 10.1439,17.0842 11.7455,17.0842 1.6016,0 30.9651,-25.0926 64.5998,-56.0577 33.6345,-30.9652 67.2692,-57.6593 74.2096,-59.7949 16.5504,-4.271 38.4396,8.0082 46.9817,26.1603 11.7454,23.4908 0,41.6428 -71.0064,108.3781 -36.304,34.1686 -66.2015,64.5998 -66.2015,67.2693 0,2.6694 12.8133,-2.1356 28.2958,-11.2115 43.2445,-24.0247 71.0064,-20.8214 83.8196,10.6775 9.61,23.4909 -0.5339,43.2446 -34.7023,66.7354 l -27.762,19.7536 39.5074,68.337 40.0411,68.337 28.2958,-2.6694 c 25.6264,-2.6694 29.8975,-1.6017 42.1768,10.6777 23.4908,23.4908 15.4826,64.5998 -13.3471,74.2096 -5.8727,2.1356 -5.3388,6.4067 3.2033,22.4231 5.8727,11.2116 13.347,21.3553 16.5504,22.9569 3.2033,1.0679 97.7005,-2.6694 209.8158,-8.542 250.9249,-13.881 243.4505,-13.881 256.7977,-0.5339 22.9568,22.957 17.618,61.9304 -9.61,74.7435 -9.0759,4.2711 -83.8196,10.1438 -201.2738,16.5504 -102.5054,5.8727 -193.7993,11.7454 -202.8753,12.8132 -13.3472,2.1355 -19.2198,9.076 -35.7702,39.5073 l -20.2876,36.3041 25.6264,3.2032 c 140.9451,17.6182 304.847,43.2444 314.9909,49.6511 25.6263,16.5503 28.2957,49.6511 6.4064,71.5403 -7.4743,7.4744 -18.1519,10.6776 -36.3039,10.6776 -20.2876,0 -289.3645,-34.7024 -348.6254,-44.8462 -12.8132,-2.1354 -17.6181,4.805 -79.0147,111.5815 -36.304,62.9982 -64.0659,116.3865 -62.4642,119.5898 2.1355,3.2033 75.8113,56.5915 163.902,119.0559 88.6245,62.4642 166.5713,119.5896 173.5118,126.5301 27.762,27.228 7.4744,75.2774 -31.4991,75.2774 -21.8891,0 -33.6345,-7.4743 -219.9596,-140.411 -109.446,-77.947 -139.8772,-97.1667 -143.0805,-91.294 -3.2034,5.8727 2.6694,15.4826 19.7536,34.1684 27.762,29.3636 37.3718,49.1172 32.0331,66.2015 -6.4067,20.2875 -18.686,29.8974 -40.5752,29.8974 -16.0165,0 -25.0924,-4.271 -41.6428,-19.2197 -24.5587,-22.4231 -24.0248,-22.4231 -47.5156,22.4231 l -12.8132,23.4908 53.9222,89.1584 c 29.8974,49.651 79.0146,131.3351 109.9799,182.5878 63.532,104.1072 68.8707,123.3269 42.7105,144.1483 -16.5504,12.8132 -43.2444,14.4148 -58.1933,3.7373 -5.8725,-4.2711 -53.9221,-78.4809 -106.7764,-164.9698 -59.7949,-98.2344 -98.2344,-155.8937 -100.9038,-152.6905 -3.2033,2.6695 -38.4396,4.805 -79.0147,4.805 h -73.6758 l 5.3388,13.3471 c 11.2116,29.8974 117.4542,434.5804 117.4542,447.9275 0,32.0329 -44.8462,52.3205 -72.608,32.5668 z m 281.89,-892.6517 207.1464,-358.2353 -207.1464,-358.2352 -206.6126,-358.2353 -416.4284,1.6017 -416.4284,1.0678 -206.0788,357.7013 c -186.8589,322.999 -206.0786,358.2352 -199.6721,368.3791 3.7372,5.8726 96.0989,165.5035 205.5449,355.0319 109.4458,189.5283 199.6721,345.9559 201.2737,348.6254 1.0678,2.1355 188.9945,3.2033 416.9623,2.6694 l 414.2929,-1.6017 z"
         inkscape:connector-curvature="0"
         style="fill:#4f4e51;fill-opacity:1;stroke-width:0.533883" /><path
         id="path44"
         d="m 8649.2071,6694.2923 c -5.8727,-5.3387 -12.8132,-17.0842 -14.4148,-26.694 -2.6694,-13.881 -0.5339,-19.7537 10.1437,-30.4314 16.5504,-16.5503 34.7025,-17.6181 53.9222,-2.6694 10.1438,8.0082 13.8809,16.0165 13.8809,28.8297 0,32.5668 -38.9734,51.2528 -63.532,30.9651 z"
         inkscape:connector-curvature="0"
         style="fill:#939296;fill-opacity:1;stroke-width:0.533883" /><path
         id="path46"
         d="m 9068.305,6692.1568 c -28.8297,-22.9569 -12.2793,-68.8708 25.0924,-68.8708 22.957,0 35.7702,13.8809 35.7702,38.9734 0,14.4148 -3.7371,21.8892 -13.8809,29.8974 -8.0084,6.4066 -18.152,11.2116 -23.4909,11.2116 -5.3388,0 -15.4826,-4.805 -23.4908,-11.2116 z"
         inkscape:connector-curvature="0"
         style="fill:#939296;fill-opacity:1;stroke-width:0.533883" /><path
         id="path48"
         d="m 7386.0409,6631.2941 c -20.8215,-20.2874 -14.9489,-49.651 11.7453,-60.8625 40.5751,-16.5503 74.2097,33.1008 42.7106,62.4642 -16.5503,15.4827 -38.4395,14.9488 -54.4559,-1.6017 z"
         inkscape:connector-curvature="0"
         style="fill:#939296;fill-opacity:1;stroke-width:0.533883" /><path
         id="path50"
         d="m 8998.9002,6617.4133 c -27.2279,-21.3554 -12.2793,-68.8709 22.4231,-68.8709 24.5586,0 38.4396,13.347 38.4396,37.3717 0,16.0166 -3.2033,22.957 -13.881,31.4992 -8.0082,6.4066 -18.152,11.2114 -23.4909,11.2114 -5.3387,0 -15.4825,-4.8048 -23.4908,-11.2114 z"
         inkscape:connector-curvature="0"
         style="fill:#939296;fill-opacity:1;stroke-width:0.533883" /><path
         id="path52"
         d="m 8608.6321,6612.6083 c -40.0412,-15.4826 -31.4991,-74.7435 10.6776,-74.7435 21.3553,0 40.0412,18.6859 40.0412,41.1089 0,25.0926 -27.228,43.2446 -50.7188,33.6346 z"
         inkscape:connector-curvature="0"
         style="fill:#939296;fill-opacity:1;stroke-width:0.533883" /><path
         id="path54"
         d="m 8908.1402,6542.1358 c -27.7619,-25.6263 -298.4404,-317.1262 -308.5841,-332.6089 -22.957,-35.7701 8.0081,-78.4807 50.1849,-69.4047 10.1438,2.6694 48.5833,39.5073 131.3351,127.0641 224.7646,239.7133 203.9432,214.6208 203.9432,240.781 0,17.0842 -3.2033,25.6264 -12.2793,34.1685 -16.5504,16.0165 -46.9817,15.4826 -64.5998,0 z"
         inkscape:connector-curvature="0"
         style="fill:#939296;fill-opacity:1;stroke-width:0.533883" /><path
         id="path56"
         d="m 9283.9935,6496.7557 c -16.0164,-6.4064 -202.8753,-141.4788 -210.8836,-152.6904 -24.5586,-35.2362 11.7454,-77.4129 52.3206,-60.3287 23.4908,9.6099 199.6721,135.0723 209.2819,148.9532 24.0247,34.7025 -11.2115,79.0148 -50.7189,64.0659 z"
         inkscape:connector-curvature="0"
         style="fill:#939296;fill-opacity:1;stroke-width:0.533883" /><path
         id="path58"
         d="m 6883.1234,6483.4088 c -13.3471,-6.4067 -24.0247,-32.033 -19.2198,-45.914 10.1437,-28.2958 44.8461,-37.9056 65.6676,-17.0842 29.8974,29.8975 -8.0083,82.2179 -46.4478,62.9982 z"
         inkscape:connector-curvature="0"
         style="fill:#939296;fill-opacity:1;stroke-width:0.533883" /><path
         id="path60"
         d="m 7731.4628,6466.8584 c -14.9486,-16.0165 -15.4825,-42.7106 -1.0677,-57.1256 25.6264,-25.6262 74.2097,-1.0677 67.2692,33.6348 -6.4066,34.1684 -43.7783,46.9817 -66.2015,23.4908 z"
         inkscape:connector-curvature="0"
         style="fill:#939296;fill-opacity:1;stroke-width:0.533883" /><path
         id="path62"
         d="m 6963.2057,6415.0718 c -40.0411,-16.0165 -30.4313,-74.7436 12.8132,-74.7436 10.6777,0 21.8892,4.271 28.2959,10.6776 28.2958,28.2958 -4.2711,78.4808 -41.1091,64.066 z"
         inkscape:connector-curvature="0"
         style="fill:#939296;fill-opacity:1;stroke-width:0.533883" /><path
         id="path64"
         d="m 6441.0686,6350.4719 c -28.2958,-16.0165 -32.5669,-48.0494 -9.076,-69.9386 8.0082,-7.4743 58.7271,-40.5751 113.1831,-73.1419 104.6409,-62.9982 120.6575,-68.337 144.6821,-49.1171 15.4827,12.2792 16.5504,43.2444 2.1355,59.2609 -14.4147,16.0164 -208.2141,133.4706 -225.2984,136.1401 -8.0082,1.6016 -19.7536,0 -25.6263,-3.2034 z"
         inkscape:connector-curvature="0"
         style="fill:#939296;fill-opacity:1;stroke-width:0.533883" /><path
         id="path66"
         d="m 7305.9584,6292.2788 c -22.4231,-24.5587 -5.3388,-64.066 27.7619,-64.066 33.1008,0 50.185,34.7024 30.4313,62.9982 -10.6776,15.4826 -44.3122,16.5503 -58.1932,1.0678 z"
         inkscape:connector-curvature="0"
         style="fill:#939296;fill-opacity:1;stroke-width:0.533883" /><path
         id="path68"
         d="m 8989.8243,6282.6688 c -26.1603,-21.3553 -8.0083,-66.7353 26.6941,-66.7353 22.4231,0 37.9057,14.9487 37.9057,37.3719 0,34.1684 -37.3718,51.2526 -64.5998,29.3634 z"
         inkscape:connector-curvature="0"
         style="fill:#939296;fill-opacity:1;stroke-width:0.533883" /><path
         id="path70"
         d="m 8906.0047,6221.2723 c -14.4149,-14.9486 -14.9487,-35.7701 -2.1355,-50.7188 17.0842,-20.2876 53.9221,-16.0165 64.5997,7.4744 18.152,40.0411 -32.5668,75.2775 -62.4642,43.2444 z"
         inkscape:connector-curvature="0"
         style="fill:#939296;fill-opacity:1;stroke-width:0.533883" /><path
         id="path72"
         d="m 9545.596,6210.0608 c -45.3799,-16.5503 -211.9514,-90.76 -221.0273,-98.7682 -34.1686,-29.8975 -7.4744,-84.3535 36.304,-73.142 7.4744,1.6016 60.8626,24.0247 119.0558,48.5833 107.8443,46.9817 129.7336,60.8626 129.7336,85.4212 0,14.9488 -19.22,37.9057 -34.7025,42.1767 -5.8728,1.6017 -19.2197,-0.5339 -29.3636,-4.271 z"
         inkscape:connector-curvature="0"
         style="fill:#939296;fill-opacity:1;stroke-width:0.533883" /><path
         id="path74"
         d="m 6727.2297,6155.6048 c -6.4067,-8.0083 -11.2116,-18.152 -11.2116,-23.4909 0,-5.3388 4.8049,-15.4825 11.2116,-23.4908 22.957,-28.8297 68.8708,-12.2793 68.8708,25.0925 0,22.957 -13.881,35.7701 -38.9734,35.7701 -14.4148,0 -21.8893,-3.7371 -29.8974,-13.8809 z"
         inkscape:connector-curvature="0"
         style="fill:#939296;fill-opacity:1;stroke-width:0.533883" /><path
         id="path76"
         d="m 8524.2786,6122.504 c -14.4148,-16.0164 -11.7455,-46.4477 4.805,-59.261 8.0081,-6.4065 18.152,-11.2114 23.4908,-11.2114 5.3387,0 15.4825,4.8049 23.4909,11.2114 17.618,13.8811 19.2197,42.1768 3.2031,58.1933 -13.8809,13.881 -43.2444,13.881 -54.9898,1.0677 z"
         inkscape:connector-curvature="0"
         style="fill:#939296;fill-opacity:1;stroke-width:0.533883" /><path
         id="path78"
         d="m 6815.8542,6106.4876 c -12.2794,-13.3471 -11.7454,-45.3801 0.5339,-56.0577 13.347,-11.7454 39.5073,-11.2116 54.9898,0.5339 14.9488,12.2792 16.0165,38.9735 2.1356,54.456 -12.8131,13.881 -45.38,14.4149 -57.6593,1.0678 z"
         inkscape:connector-curvature="0"
         style="fill:#939296;fill-opacity:1;stroke-width:0.533883" /><path
         id="path80"
         d="m 9235.9442,6069.6497 c -27.2281,-10.1438 -36.3041,-45.38 -16.0166,-65.6676 24.0247,-24.0247 64.0659,-5.8727 64.0659,28.2958 0,25.0925 -26.1602,45.38 -48.0493,37.3718 z"
         inkscape:connector-curvature="0"
         style="fill:#939296;fill-opacity:1;stroke-width:0.533883" /><path
         id="path82"
         d="m 9126.4982,6017.3292 c -26.1603,-25.6264 -10.1438,-63.532 26.6941,-63.532 22.957,0 40.0413,16.0164 40.0413,37.9056 0,17.0843 -22.4231,38.9735 -40.0413,38.9735 -7.4743,0 -19.7537,-5.8727 -26.6941,-13.3471 z"
         inkscape:connector-curvature="0"
         style="fill:#939296;fill-opacity:1;stroke-width:0.533883" /><path
         id="path84"
         d="m 9009.0441,5974.6186 c -124.3947,-50.7188 -385.4634,-168.7069 -395.6071,-178.3169 -28.2958,-27.2279 -9.076,-75.2774 30.4313,-75.2774 24.0247,0 430.8433,176.7152 444.1903,192.7317 13.881,17.618 11.7455,40.575 -6.4065,58.727 -19.2199,18.6859 -30.9653,19.2198 -72.608,2.1356 z"
         inkscape:connector-curvature="0"
         style="fill:#939296;fill-opacity:1;stroke-width:0.533883" /><path
         id="path86"
         d="m 6258.4807,5944.1873 c -25.0926,-12.2793 -28.2958,-56.0577 -4.805,-71.0064 14.4149,-9.6099 229.0357,-67.8031 252.5265,-68.337 22.4232,-0.5339 44.3123,19.2198 44.3123,39.5073 0,32.033 -14.4149,39.5073 -144.1483,74.2097 -65.6676,17.6181 -123.3269,32.0329 -128.1319,31.499 -4.271,0 -13.347,-2.6694 -19.7536,-5.8726 z"
         inkscape:connector-curvature="0"
         style="fill:#939296;fill-opacity:1;stroke-width:0.533883" /><path
         id="path88"
         d="m 6600.1656,5854.495 c -37.3719,-15.4827 -24.0247,-74.7436 17.0842,-74.7436 20.2876,0 40.0412,19.7536 40.0412,40.0412 0,26.1602 -31.4991,45.38 -57.1254,34.7024 z"
         inkscape:connector-curvature="0"
         style="fill:#939296;fill-opacity:1;stroke-width:0.533883" /><path
         id="path90"
         d="m 6693.0611,5822.462 c -19.2198,-14.9486 -20.2875,-48.5834 -2.6694,-60.8626 28.2958,-19.7536 62.9982,-2.6694 62.9982,30.4313 0,32.5669 -35.2363,50.1849 -60.3288,30.4313 z"
         inkscape:connector-curvature="0"
         style="fill:#939296;fill-opacity:1;stroke-width:0.533883" /><path
         id="path92"
         d="m 9480.9962,5731.702 c -137.7416,-19.2199 -142.5466,-20.2876 -154.826,-32.5668 -20.8214,-20.8214 -8.542,-64.5999 19.7538,-70.4725 8.0082,-1.6017 71.0063,5.3388 139.8772,14.9486 139.8772,19.7537 147.3516,22.957 147.3516,58.7272 0,21.3553 -13.3471,37.3717 -34.1685,41.6428 -7.4744,1.0678 -60.3287,-4.2711 -117.9881,-12.2793 z"
         inkscape:connector-curvature="0"
         style="fill:#939296;fill-opacity:1;stroke-width:0.533883" /><path
         id="path94"
         d="m 9226.8681,5687.9236 c -16.0165,-8.0082 -24.5586,-30.9651 -18.152,-48.5834 6.4066,-16.0164 20.8214,-25.0923 40.0412,-25.0923 33.6346,0 48.0495,47.5154 21.3553,68.8707 -15.4825,12.2794 -25.6263,13.3472 -43.2445,4.805 z"
         inkscape:connector-curvature="0"
         style="fill:#939296;fill-opacity:1;stroke-width:0.533883" /><path
         id="path96"
         d="m 9119.5578,5669.7716 c -8.5422,-5.8727 -11.7455,-13.347 -11.7455,-28.2958 0,-24.5586 8.5421,-36.8379 29.3635,-41.109 24.5586,-4.8049 45.38,13.8811 45.38,40.5751 0,23.4908 -13.8809,37.3719 -37.3717,37.3719 -7.4744,0 -19.2198,-3.7373 -25.6263,-8.5422 z"
         inkscape:connector-curvature="0"
         style="fill:#939296;fill-opacity:1;stroke-width:0.533883" /><path
         id="path98"
         d="m 5828.8142,5617.9256 c -13.7925,-1.9536 -30.7915,-24.6453 -30.5946,-41.1647 0.076,-6.3946 5.1573,-18.7143 11.668,-26.7902 l 11.5157,-14.0011 122.4821,-9.569 c 112.106,-8.3698 122.9629,-8.5096 134.218,-0.6624 15.6584,10.9872 22.3323,30.6149 16.2133,47.2105 -9.1942,26.2257 -22.563,30.1274 -116.8842,36.6698 -48.8878,3.2934 -99.2624,7.1388 -113.093,8.3825 -13.3371,1.2373 -29.6224,1.447 -35.5253,-0.075 z"
         inkscape:connector-curvature="0"
         style="fill:#939296;fill-opacity:1;stroke-width:0.512772" /><path
         id="path100"
         d="m 6131.4166,5579.5454 c -24.0247,-23.4908 -11.7454,-58.1932 22.4232,-64.5998 35.77,-6.9405 58.727,41.109 32.0328,66.2015 -16.5503,15.4825 -38.4395,14.9486 -54.456,-1.6017 z"
         inkscape:connector-curvature="0"
         style="fill:#939296;fill-opacity:1;stroke-width:0.533883" /><path
         id="path102"
         d="m 6232.8543,5574.2066 c -7.4743,-6.9404 -13.347,-19.2198 -13.347,-26.6941 0,-7.4744 5.8727,-19.7536 13.347,-26.6942 6.9405,-7.4743 19.2197,-13.3471 26.6941,-13.3471 7.4745,0 19.7537,5.8728 26.6942,13.3471 18.152,17.6181 17.6181,41.109 -0.5338,55.5238 -18.6859,14.9488 -36.8379,13.881 -52.8545,-2.1355 z"
         inkscape:connector-curvature="0"
         style="fill:#939296;fill-opacity:1;stroke-width:0.533883" /><path
         id="path104"
         d="m 6349.7747,5575.8082 c -11.7455,-5.3387 -23.4909,-25.0924 -23.4909,-39.5072 0,-13.3471 14.9487,-37.9057 25.0925,-41.6429 13.8809,-5.8728 465.0118,-30.4314 480.4943,-26.6941 28.8298,7.4743 38.9735,54.456 15.4826,76.3452 -16.0165,14.9486 -14.9486,14.9486 -240.2472,27.228 -214.6208,11.7454 -241.3149,12.2793 -257.3313,4.271 z"
         inkscape:connector-curvature="0"
         style="fill:#939296;fill-opacity:1;stroke-width:0.533883" /><path
         id="path106"
         d="m 6916.7579,5533.6315 c -19.2197,-14.9487 -19.2197,-42.7106 0,-57.6593 28.8298,-22.4231 62.9982,-6.9405 62.9982,28.8297 0,35.7701 -34.1684,51.2527 -62.9982,28.8296 z"
         inkscape:connector-curvature="0"
         style="fill:#939296;fill-opacity:1;stroke-width:0.533883" /><path
         id="path108"
         d="m 9253.5623,5416.7113 c -24.0248,-9.6099 -29.3636,-38.4397 -11.7455,-60.8627 21.8892,-27.7619 68.8709,-11.7454 68.8709,24.0247 0,27.7619 -30.4312,48.0495 -57.1254,36.838 z"
         inkscape:connector-curvature="0"
         style="fill:#939296;fill-opacity:1;stroke-width:0.533883" /><path
         id="path110"
         d="m 9352.3305,5408.7029 c -8.542,-4.8049 -15.4825,-14.4147 -17.6181,-24.5585 -8.0083,-36.8379 36.8379,-62.4643 64.5998,-36.304 33.6347,31.499 -6.4066,83.2857 -46.9817,60.8625 z"
         inkscape:connector-curvature="0"
         style="fill:#939296;fill-opacity:1;stroke-width:0.533883" /><path
         id="path112"
         d="m 9455.9038,5399.093 c -11.7455,-12.2792 -14.9488,-32.0328 -8.5421,-49.1171 7.4744,-18.6859 29.8974,-22.9569 158.5631,-29.8974 124.3947,-6.4067 127.0641,-6.4067 141.4789,4.2711 24.0247,17.618 22.4231,54.456 -3.2033,67.803 -9.076,4.805 -49.651,9.6099 -113.1831,13.3471 -147.3517,9.076 -161.2326,8.5422 -175.1135,-6.4067 z"
         inkscape:connector-curvature="0"
         style="fill:#939296;fill-opacity:1;stroke-width:0.533883" /><path
         id="path114"
         d="m 6710.6793,5344.1032 c -89.6922,-12.2793 -183.1218,-25.6264 -208.2142,-29.3636 -37.3718,-5.3388 -47.5157,-8.542 -59.7949,-21.3553 -18.6859,-18.6859 -19.7536,-41.6428 -2.6694,-61.3965 16.5503,-19.2198 21.3553,-19.2198 235.9761,10.6777 97.1667,13.881 186.859,26.1602 200.206,27.7619 61.9304,8.0082 80.6162,19.7536 81.684,52.3205 0.5339,13.3471 -3.2033,22.957 -12.2792,32.5668 -17.0843,18.152 -34.7025,17.0843 -234.9084,-11.2115 z"
         inkscape:connector-curvature="0"
         style="fill:#939296;fill-opacity:1;stroke-width:0.533883" /><path
         id="path116"
         d="m 6343.9019,5288.5793 c -37.3718,-15.4825 -24.0247,-74.7434 17.0842,-74.7434 45.9139,0 52.8544,67.2691 8.0083,76.879 -7.4744,1.6016 -18.6859,0.5339 -25.0925,-2.1356 z"
         inkscape:connector-curvature="0"
         style="fill:#939296;fill-opacity:1;stroke-width:0.533883" /><path
         id="path118"
         d="m 8757.0514,5283.2406 c -13.8809,-5.8727 -22.957,-21.3553 -22.957,-39.5074 0,-33.6346 47.5156,-48.0494 68.8709,-21.3553 6.4066,8.0083 11.2116,17.6182 11.2116,21.3553 0,15.4827 -13.3472,34.1686 -28.2958,39.5074 -8.5422,2.6694 -16.0165,5.3387 -16.5504,4.8048 -0.5338,0 -5.8727,-2.1354 -12.2793,-4.8048 z"
         inkscape:connector-curvature="0"
         style="fill:#939296;fill-opacity:1;stroke-width:0.533883" /><path
         id="path120"
         d="m 6232.8543,5264.5547 c -7.4743,-6.9405 -13.347,-19.2198 -13.347,-26.6941 0,-7.4744 5.8727,-19.7537 13.347,-26.6942 6.9405,-7.4744 19.2197,-13.347 26.6941,-13.347 7.4745,0 19.7537,5.8726 26.6942,13.347 7.4743,6.9405 13.347,19.2198 13.347,26.6942 0,7.4743 -5.8727,19.7536 -13.347,26.6941 -6.9405,7.4743 -19.2197,13.3471 -26.6942,13.3471 -7.4744,0 -19.7536,-5.8728 -26.6941,-13.3471 z"
         inkscape:connector-curvature="0"
         style="fill:#939296;fill-opacity:1;stroke-width:0.533883" /><path
         id="path122"
         d="m 6011.293,5250.1398 c -115.8524,-16.5503 -131.3352,-21.3553 -140.4111,-48.5833 -5.8727,-18.6859 5.3388,-42.1767 24.5587,-48.5832 13.8809,-4.805 87.0228,2.6693 231.7049,24.0247 46.4479,7.4742 60.3288,17.6181 60.3288,47.5154 0,16.0166 -3.2033,22.957 -13.8809,31.4992 -17.6182,13.8809 -25.6264,13.8809 -162.3004,-5.8728 z"
         inkscape:connector-curvature="0"
         style="fill:#939296;fill-opacity:1;stroke-width:0.533883" /><path
         id="path124"
         d="m 8875.5734,5256.0126 c -17.0842,-10.1439 -24.0248,-21.8893 -24.0248,-42.1767 0,-36.3041 5.3389,-38.9735 241.315,-102.5055 118.522,-31.4991 223.1629,-57.6593 232.7728,-57.6593 40.5751,0 59.7949,60.8625 26.1602,82.2179 -10.6775,6.9404 -410.0218,116.3864 -449.5291,123.3269 -8.5421,1.6017 -20.8214,0 -26.6941,-3.2033 z"
         inkscape:connector-curvature="0"
         style="fill:#939296;fill-opacity:1;stroke-width:0.533883" /><path
         id="path126"
         d="m 9404.6511,5093.1783 c -12.2794,-12.2793 -15.4826,-31.499 -8.0083,-45.9139 8.5422,-16.5503 14.9488,-20.2876 35.7701,-20.2876 32.5668,0 49.6511,35.2363 29.8974,62.9982 -9.6098,14.4149 -44.8461,16.5504 -57.6592,3.2033 z"
         inkscape:connector-curvature="0"
         style="fill:#939296;fill-opacity:1;stroke-width:0.533883" /><path
         id="path128"
         d="m 7000.5775,5091.0428 c -24.5586,-10.1438 -30.4312,-44.3123 -10.6776,-62.9981 20.8214,-19.7537 52.8543,-12.8132 62.9981,13.3471 6.9405,18.6858 -2.1355,41.1089 -19.7536,49.1171 -15.4826,6.9405 -16.5503,6.9405 -32.5669,0.5339 z"
         inkscape:connector-curvature="0"
         style="fill:#939296;fill-opacity:1;stroke-width:0.533883" /><path
         id="path130"
         d="m 9518.9019,5076.6279 c -28.2958,-10.1437 -37.3718,-52.3205 -14.9487,-67.803 16.0165,-11.7454 43.2445,-10.6776 53.9222,1.0677 11.7454,13.3472 11.7454,45.38 0,55.5239 -11.7455,10.1437 -28.2958,14.9487 -38.9735,11.2114 z"
         inkscape:connector-curvature="0"
         style="fill:#939296;fill-opacity:1;stroke-width:0.533883" /><path
         id="path132"
         d="m 6619.9192,5059.0099 c -24.0247,-24.0247 -6.9404,-65.6676 26.6941,-65.6676 8.5421,0 20.8215,4.2711 26.6942,9.6098 13.881,12.8133 14.4149,45.38 1.0678,57.6595 -13.3471,12.2792 -41.6429,11.2114 -54.4561,-1.6017 z"
         inkscape:connector-curvature="0"
         style="fill:#939296;fill-opacity:1;stroke-width:0.533883" /><path
         id="path134"
         d="m 6678.6463,4960.2415 c -109.9798,-48.0493 -206.6126,-92.8954 -214.6208,-100.3699 -20.8214,-18.1519 -20.2875,-42.1767 1.0678,-63.532 13.347,-13.3471 19.7536,-16.0164 33.6346,-13.3471 26.1602,4.2711 432.4449,183.6557 439.9193,194.3333 11.2115,14.9488 8.5421,46.4478 -5.3389,59.261 -23.4908,22.4231 -40.5751,17.6181 -254.662,-76.3453 z"
         inkscape:connector-curvature="0"
         style="fill:#939296;fill-opacity:1;stroke-width:0.533883" /><path
         id="path136"
         d="m 9610.1959,5038.7223 c -21.3553,-16.5503 -11.7455,-64.5997 13.8809,-72.608 49.6511,-14.9487 233.3067,-61.9304 243.4505,-61.9304 6.9405,0 19.2197,4.8049 27.2281,11.2115 17.618,13.881 19.7536,45.9139 3.2031,60.8627 -12.8131,11.7454 -227.9678,72.074 -256.7975,72.074 -10.6776,0 -25.0925,-4.2709 -30.9651,-9.6098 z"
         inkscape:connector-curvature="0"
         style="fill:#939296;fill-opacity:1;stroke-width:0.533883" /><path
         id="path138"
         d="m 6531.8286,5031.2479 c -14.9487,-8.542 -18.6859,-14.9486 -18.6859,-34.7023 0,-42.7106 55.5238,-54.99 72.0742,-16.0165 16.0164,37.9057 -18.6859,70.4725 -53.3883,50.7188 z"
         inkscape:connector-curvature="0"
         style="fill:#939296;fill-opacity:1;stroke-width:0.533883" /><path
         id="path140"
         d="m 8641.1989,5005.0877 c -27.228,-21.3553 -12.2794,-68.8709 22.4231,-68.8709 28.8296,0.5339 48.5833,28.2958 37.9056,53.9222 -11.2116,27.7619 -36.3039,33.6346 -60.3287,14.9487 z"
         inkscape:connector-curvature="0"
         style="fill:#7dcfb6;fill-opacity:1;stroke-width:0.533883" /><path
         id="path142"
         d="m 6422.3827,4996.5456 c -159.0971,-56.5916 -216.2225,-77.413 -224.2308,-81.6841 -13.347,-6.9404 -21.8891,-34.7023 -16.0163,-50.7188 2.6693,-6.9405 11.2114,-17.0842 19.2197,-21.8892 17.0842,-11.7454 22.9569,-10.1437 160.1647,38.9734 109.9798,38.9735 124.9286,48.5834 124.9286,78.4808 0,29.8974 -32.033,48.0494 -64.0659,36.8379 z"
         inkscape:connector-curvature="0"
         style="fill:#939296;fill-opacity:1;stroke-width:0.533883" /><path
         id="path144"
         d="m 7181.5638,4994.944 c -11.7454,-4.805 -22.4232,-24.5587 -22.4232,-40.5751 0,-13.3471 25.0926,-34.1685 41.6429,-34.1685 19.2198,0 38.4395,19.7536 38.4395,39.5073 0,16.5504 -21.3553,40.5751 -35.7701,40.0412 -5.3388,0 -14.9486,-2.1355 -21.8891,-4.8049 z"
         inkscape:connector-curvature="0"
         style="fill:#939296;fill-opacity:1;stroke-width:0.533883" /><path
         id="path146"
         d="m 8743.1705,4946.8945 c -17.6182,-13.8809 -21.8892,-33.6346 -11.7454,-55.5237 6.4065,-13.3472 24.5585,-27.2281 79.0145,-60.3289 259.467,-158.0292 317.6602,-192.1976 328.8718,-195.401 16.5503,-4.2711 45.9139,8.0083 53.3883,21.8892 9.0759,17.0842 6.9404,36.8379 -5.8728,51.2527 -10.1438,11.2116 -338.4816,214.6208 -388.1327,240.2472 -21.3553,11.2115 -38.9734,10.6777 -55.5237,-2.1355 z"
         inkscape:connector-curvature="0"
         style="fill:#939296;fill-opacity:1;stroke-width:0.533883" /><path
         id="path148"
         d="m 7036.8816,4901.5145 c -153.2243,-104.1071 -335.2783,-238.1117 -341.151,-250.391 -10.1438,-22.4231 -7.4744,-34.7024 9.6099,-52.3204 13.8809,-13.881 19.2198,-16.0165 34.7023,-13.3472 12.2794,2.1356 74.7436,43.2445 193.2655,127.0642 96.0989,67.8031 183.1218,131.3351 192.7317,139.8771 21.8892,20.8215 23.4908,45.914 3.7371,65.1337 -21.3553,21.8892 -43.2445,18.1521 -92.8955,-16.0164 z"
         inkscape:connector-curvature="0"
         style="fill:#939296;fill-opacity:1;stroke-width:0.533883" /><path
         id="path150"
         d="m 6360.9861,4813.4239 c -22.4231,-24.5587 -5.3388,-64.066 27.7619,-64.066 33.1008,0 50.1851,34.7023 30.4314,62.9981 -10.6777,15.4827 -44.3123,16.5504 -58.1933,1.0679 z"
         inkscape:connector-curvature="0"
         style="fill:#939296;fill-opacity:1;stroke-width:0.533883" /><path
         id="path152"
         d="m 8651.8765,4812.356 c -19.2197,-27.2279 -2.6694,-64.5997 27.762,-64.5997 22.423,0 38.4394,14.9486 38.4394,35.7701 0,26.6941 -12.813,40.5751 -37.3717,40.5751 -15.4825,0 -22.9569,-3.2033 -28.8297,-11.7455 z"
         inkscape:connector-curvature="0"
         style="fill:#7dcfb6;fill-opacity:1;stroke-width:0.533883" /><path
         id="path154"
         d="m 6270.76,4775.5182 c -19.2198,-14.9488 -19.2198,-42.7106 0,-57.6594 28.8296,-22.423 62.9982,-6.9404 62.9982,28.8297 0,35.7701 -34.1686,51.2528 -62.9982,28.8297 z"
         inkscape:connector-curvature="0"
         style="fill:#939296;fill-opacity:1;stroke-width:0.533883" /><path
         id="path156"
         d="m 8752.2465,4741.8835 c -18.6859,-8.542 -23.4908,-17.0842 -23.4908,-44.3122 0,-22.957 5.3387,-28.2957 201.2736,-211.4175 95.0311,-89.1584 145.2162,-131.869 155.8937,-134.5384 34.7025,-7.4744 65.1338,27.228 53.3884,60.8626 -3.2033,9.6099 -62.4643,69.4047 -158.0293,159.097 -83.8196,78.4808 -160.1648,149.4871 -169.7746,157.4954 -21.8892,18.152 -38.4396,21.8892 -59.261,12.8131 z"
         inkscape:connector-curvature="0"
         style="fill:#939296;fill-opacity:1;stroke-width:0.533883" /><path
         id="path158"
         d="m 6074.9821,4697.0564 c -116.3117,-51.8048 -132.9104,-63.4739 -127.5944,-91.7733 4.2455,-20.8254 20.9498,-35.3001 40.7171,-35.3819 18.7268,-0.078 218.6452,87.1279 237.3052,103.5903 28.5095,24.9581 10.1131,71.9853 -27.8565,71.0754 -8.8432,0.037 -63.8974,-21.0768 -122.5714,-47.5105 z"
         inkscape:connector-curvature="0"
         style="fill:#939296;fill-opacity:1;stroke-width:0.526821" /><path
         id="path160"
         d="m 9227.402,4652.7251 c -11.7455,-5.8726 -23.4909,-25.6262 -23.4909,-38.9734 0,-3.7372 4.805,-13.347 11.2116,-21.3553 22.9569,-28.8296 68.8708,-12.2792 68.8708,25.0925 0,28.8297 -30.9651,47.5156 -56.5915,35.2362 z"
         inkscape:connector-curvature="0"
         style="fill:#939296;fill-opacity:1;stroke-width:0.533883" /><path
         id="path162"
         d="m 7861.1963,4620.1584 c -14.9486,-8.5422 -18.6859,-14.9488 -18.6859,-34.7025 0,-44.3123 59.261,-53.9221 74.2098,-12.2792 12.8131,36.8378 -21.8892,66.2014 -55.5239,46.9817 z"
         inkscape:connector-curvature="0"
         style="fill:#939296;fill-opacity:1;stroke-width:0.533883" /><path
         id="path164"
         d="m 7384.4392,4608.9468 c -6.9405,-6.9404 -11.7455,-19.2198 -11.7455,-28.8296 0,-34.7025 43.7784,-48.0495 67.8031,-20.8214 16.0166,18.6859 15.4826,32.5668 -1.0678,48.5832 -16.5503,17.0843 -39.5072,17.6182 -54.9898,1.0678 z"
         inkscape:connector-curvature="0"
         style="fill:#7dcfb6;fill-opacity:1;stroke-width:0.533883" /><path
         id="path166"
         d="m 6627.9275,4605.2096 c -41.109,-16.0165 -29.8974,-74.7435 13.881,-74.7435 20.8214,0 36.8378,17.0842 36.8378,38.9734 0,27.228 -26.6941,45.9139 -50.7188,35.7701 z"
         inkscape:connector-curvature="0"
         style="fill:#939296;fill-opacity:1;stroke-width:0.533883" /><path
         id="path168"
         d="m 9321.3654,4601.4725 c -28.2958,-10.6777 -37.3719,-52.3206 -14.9488,-67.8031 27.762,-19.7536 62.9982,-2.1356 62.9982,31.499 0,16.5504 -11.2115,34.7024 -21.3553,34.7024 -2.6694,0 -7.4744,1.0678 -11.7454,2.1356 -3.7372,1.6016 -10.6777,1.0677 -14.9487,-0.5339 z"
         inkscape:connector-curvature="0"
         style="fill:#939296;fill-opacity:1;stroke-width:0.533883" /><path
         id="path170"
         d="m 8298.9801,4583.3205 c -17.0842,-9.6099 -24.0247,-21.3553 -24.0247,-41.643 0,-23.4907 171.3763,-419.6316 189.5283,-437.7837 26.6941,-27.2279 77.413,-7.4743 77.413,29.3636 0,16.5503 -178.3168,428.1739 -191.13,440.987 -11.7455,12.2793 -38.4395,16.5504 -51.7866,9.0761 z"
         inkscape:connector-curvature="0"
         style="fill:#939296;fill-opacity:1;stroke-width:0.533883" /><path
         id="path172"
         d="m 7074.7873,4569.4395 c -27.2281,-23.4909 -9.61,-71.0064 25.6263,-71.0064 34.7023,0 49.6511,41.6429 24.0248,66.7353 -14.9489,15.4827 -34.7025,17.0843 -49.6511,4.2711 z"
         inkscape:connector-curvature="0"
         style="fill:#939296;fill-opacity:1;stroke-width:0.533883" /><path
         id="path174"
         d="m 7668.9986,4551.8214 c -26.1602,-10.1439 -34.1686,-43.7784 -16.0164,-64.066 12.8131,-13.8808 42.1767,-13.8808 56.0576,0 28.2958,28.2958 -3.2034,79.0146 -40.0412,64.066 z"
         inkscape:connector-curvature="0"
         style="fill:#939296;fill-opacity:1;stroke-width:0.533883" /><path
         id="path176"
         d="m 6541.4385,4546.4825 c -38.4395,-15.4825 -25.6264,-74.7435 16.0164,-74.7435 43.2446,0 53.3884,60.3287 12.8132,74.7435 -8.5421,2.6694 -16.0164,5.3389 -16.5503,4.8049 -0.5339,0 -5.8727,-2.1355 -12.2793,-4.8049 z"
         inkscape:connector-curvature="0"
         style="fill:#939296;fill-opacity:1;stroke-width:0.533883" /><path
         id="path178"
         d="m 9398.7783,4533.1355 c -17.0842,-16.5503 -17.0842,-40.5751 -1.0677,-58.1933 19.7536,-21.8891 206.6125,-132.4028 228.5018,-135.0722 37.3717,-5.3389 61.3965,36.8378 37.9056,66.2015 -8.0083,10.1436 -166.0375,109.9797 -209.2819,132.4028 -22.4232,11.7454 -41.1091,10.1437 -56.0578,-5.3388 z"
         inkscape:connector-curvature="0"
         style="fill:#939296;fill-opacity:1;stroke-width:0.533883" /><path
         id="path180"
         d="m 7313.4328,4506.9753 c -22.957,-22.957 -241.8489,-388.6666 -243.9844,-407.3525 -1.6016,-13.881 1.0678,-20.8214 13.881,-33.6347 18.152,-17.618 39.5073,-20.8213 58.1932,-8.0082 10.1437,6.9405 231.705,364.108 247.1877,398.8103 20.8214,45.3801 -40.0413,85.9551 -75.2775,50.1851 z"
         inkscape:connector-curvature="0"
         style="fill:#939296;fill-opacity:1;stroke-width:0.533883" /><path
         id="path182"
         d="m 7855.3236,4501.6363 c -9.0759,-4.271 -19.2197,-13.8809 -22.4231,-22.423 -5.8726,-14.9487 -27.7618,-357.1674 -27.7618,-437.2499 0,-22.423 2.1355,-45.38 5.3388,-50.7188 7.4743,-13.8809 37.9057,-22.9569 54.9899,-16.5504 27.7619,10.6777 28.8297,16.5504 40.575,230.1034 14.4149,254.662 14.4149,274.4157 0.534,288.2967 -5.8728,5.8726 -12.8132,10.6776 -15.4826,10.6776 -2.6694,0 -8.0082,1.0678 -12.2793,2.6694 -3.7372,1.0678 -14.4148,-1.0677 -23.4909,-4.805 z"
         inkscape:connector-curvature="0"
         style="fill:#939296;fill-opacity:1;stroke-width:0.533883" /><path
         id="path184"
         d="m 7005.9163,4495.7637 c -15.4825,-10.6777 -19.7536,-31.4991 -10.1436,-50.1849 13.347,-25.0926 42.1767,-29.8975 60.8626,-9.61 32.5668,34.7024 -11.7455,87.0228 -50.719,59.7949 z"
         inkscape:connector-curvature="0"
         style="fill:#939296;fill-opacity:1;stroke-width:0.533883" /><path
         id="path186"
         d="m 6413.8405,4462.663 c -74.2097,-50.719 -170.3085,-121.1914 -176.7151,-129.1996 -3.7373,-4.805 -6.9405,-16.5504 -6.9405,-25.6264 0,-24.0247 16.0165,-38.9734 41.6428,-38.9734 16.5505,0 34.7024,11.2114 120.6575,71.5403 55.5238,39.5073 104.1071,77.4129 107.8443,84.3534 10.6777,18.6859 9.0761,35.2363 -5.8727,49.6511 -19.7536,19.7537 -38.4395,17.0842 -80.6163,-11.7454 z"
         inkscape:connector-curvature="0"
         style="fill:#939296;fill-opacity:1;stroke-width:0.533883" /><path
         id="path188"
         d="m 7622.5508,4429.0284 c -7.4744,-5.3389 -16.0165,-17.0844 -19.2197,-25.0925 -14.4148,-36.838 -113.1832,-419.6317 -113.1832,-438.3176 0,-26.6942 17.0842,-43.7784 43.7784,-43.7784 36.8379,0 37.3717,0 100.3699,234.9083 32.033,119.0559 58.7271,226.3663 58.7271,238.6455 0,17.6182 -2.6694,24.5587 -13.881,33.1008 -17.618,13.8809 -39.5073,14.4148 -56.5915,0.5339 z"
         inkscape:connector-curvature="0"
         style="fill:#939296;fill-opacity:1;stroke-width:0.533883" /><path
         id="path190"
         d="m 6928.5034,4414.0796 c -20.2875,-12.8131 -166.0375,-170.3085 -173.5119,-186.8588 -14.4148,-30.9653 4.2711,-59.795 37.9057,-59.795 24.0248,0 21.3553,-2.6693 147.8855,134.5385 48.5833,52.3205 52.8544,59.261 52.8544,78.4808 0,36.3039 -34.1685,53.9221 -65.1337,33.6345 z"
         inkscape:connector-curvature="0"
         style="fill:#939296;fill-opacity:1;stroke-width:0.533883" /><path
         id="path192"
         d="m 8662.5542,4396.4615 c -27.7619,-21.8892 -10.6777,-68.8709 25.6263,-68.8709 18.1521,0 40.5752,21.8892 40.5752,40.0412 0,17.6182 -21.8893,40.0413 -38.9736,40.0413 -6.9404,0 -19.2197,-4.805 -27.2279,-11.2116 z"
         inkscape:connector-curvature="0"
         style="fill:#939296;fill-opacity:1;stroke-width:0.533883" /><path
         id="path194"
         d="m 9145.1841,4339.87 c -21.3553,-27.7619 -4.805,-62.4644 29.8974,-62.4644 35.7701,0 52.8544,41.1091 27.228,65.1338 -17.6181,16.5504 -42.7106,15.4825 -57.1254,-2.6694 z"
         inkscape:connector-curvature="0"
         style="fill:#939296;fill-opacity:1;stroke-width:0.533883" /><path
         id="path196"
         d="m 8719.1458,4309.9725 c -24.0248,-25.6264 -9.6099,-62.4642 25.6263,-62.4642 22.957,0 35.7701,9.6098 40.5751,30.4312 8.5421,34.1686 -41.109,58.7272 -66.2014,32.033 z"
         inkscape:connector-curvature="0"
         style="fill:#939296;fill-opacity:1;stroke-width:0.533883" /><path
         id="path198"
         d="m 9220.4615,4270.9991 c -22.4231,-28.8297 -6.9404,-62.9981 28.8297,-62.9981 35.7701,0 51.2527,34.1684 28.8297,62.9981 -8.0083,10.1438 -16.0166,13.8809 -28.8297,13.8809 -12.8132,0 -20.8214,-3.7371 -28.8297,-13.8809 z"
         inkscape:connector-curvature="0"
         style="fill:#939296;fill-opacity:1;stroke-width:0.533883" /><path
         id="path200"
         d="m 8795.491,4230.9579 c -28.8297,-16.5504 -30.9652,-39.5073 -7.4744,-77.413 35.7701,-56.0576 132.9368,-187.9266 141.4789,-191.13 32.0329,-12.2793 60.8627,5.3389 60.8627,37.3718 0,16.0164 -10.6778,34.7024 -64.5999,111.0476 -35.7702,50.185 -71.0064,97.7006 -79.0146,105.7087 -16.5503,17.0843 -36.3041,22.4231 -51.2527,14.4149 z"
         inkscape:connector-curvature="0"
         style="fill:#939296;fill-opacity:1;stroke-width:0.533883" /><path
         id="path202"
         d="m 9301.0779,4197.8571 c -7.4745,-7.4743 -11.7455,-19.2197 -11.7455,-30.9651 0,-16.5504 6.9405,-25.0924 73.142,-89.1584 98.2342,-95.0311 121.1912,-113.1831 142.5465,-113.1831 22.957,0 40.5751,18.6858 40.5751,43.2445 0,16.0164 -5.8726,24.0247 -57.1254,73.1419 -110.5137,106.2427 -138.8095,129.1997 -158.0293,129.1997 -11.7454,0 -21.8891,-4.2711 -29.3634,-12.2795 z"
         inkscape:connector-curvature="0"
         style="fill:#939296;fill-opacity:1;stroke-width:0.533883" /><path
         id="path204"
         d="m 8056.5973,4157.2821 c -12.8131,-12.8131 -14.4147,-27.762 -5.3388,-44.8462 8.5422,-16.0164 14.9488,-19.7536 35.2363,-19.7536 49.6511,0 49.6511,69.4047 0,73.6758 -13.8809,1.0677 -22.423,-1.6016 -29.8975,-9.076 z"
         inkscape:connector-curvature="0"
         style="fill:#939296;fill-opacity:1;stroke-width:0.533883" /><path
         id="path206"
         d="m 8088.0965,4067.5898 c -17.6181,-6.4066 -26.6942,-19.7536 -26.6942,-38.9734 0,-24.5586 13.3471,-37.3718 38.4396,-37.3718 23.4908,0 36.304,13.347 36.304,38.4396 0,25.6264 -25.6264,45.9139 -48.0494,37.9056 z"
         inkscape:connector-curvature="0"
         style="fill:#939296;fill-opacity:1;stroke-width:0.533883" /><path
         id="path208"
         d="m 8508.2621,4056.3783 c -5.3388,-5.3388 -9.076,-17.6182 -9.076,-26.6941 0,-32.5669 35.2362,-49.6511 62.9981,-29.8975 14.9488,10.6777 16.5504,44.3123 2.1356,57.1255 -13.3471,12.2793 -45.38,11.7454 -56.0577,-0.5339 z"
         inkscape:connector-curvature="0"
         style="fill:#939296;fill-opacity:1;stroke-width:0.533883" /><path
         id="path210"
         d="m 7037.9494,4039.294 c -40.0413,-16.0165 -30.4314,-74.7435 12.8131,-74.7435 46.4478,0 54.4561,64.0659 9.6099,76.3452 -5.8727,1.6016 -16.0165,1.0677 -22.423,-1.6017 z"
         inkscape:connector-curvature="0"
         style="fill:#939296;fill-opacity:1;stroke-width:0.533883" /><path
         id="path212"
         d="m 8549.905,3961.881 c -20.8214,-20.2874 -14.9489,-49.6511 11.7454,-60.8626 41.6427,-17.0843 75.8113,35.7702 41.1089,62.9982 -18.6859,14.9487 -36.8379,13.8809 -52.8543,-2.1356 z"
         inkscape:connector-curvature="0"
         style="fill:#939296;fill-opacity:1;stroke-width:0.533883" /><path
         id="path214"
         d="m 8091.8337,3953.3389 c -20.8215,-12.2793 -21.3553,-28.2957 -3.2033,-159.6309 16.5503,-120.6574 18.152,-125.9963 32.5668,-140.945 12.8132,-12.2793 18.1519,-14.4148 32.5669,-11.7455 22.9569,4.2711 35.7701,20.8215 35.7701,45.914 0,11.2115 -7.4743,70.4724 -16.0165,131.3351 -18.152,124.3947 -22.957,137.2078 -53.9222,139.3433 -10.1437,1.0679 -22.423,-1.0677 -27.7618,-4.271 z"
         inkscape:connector-curvature="0"
         style="fill:#939296;fill-opacity:1;stroke-width:0.533883" /><path
         id="path216"
         d="m 6970.1463,3943.7291 c -13.3472,-14.415 -12.8132,-41.6428 1.0678,-54.99 13.8808,-13.8809 40.0412,-14.9486 54.4559,-1.6016 13.8811,12.8132 14.4149,45.38 1.0678,57.6594 -13.3471,12.2792 -45.38,11.7453 -56.5915,-1.0678 z"
         inkscape:connector-curvature="0"
         style="fill:#939296;fill-opacity:1;stroke-width:0.533883" /><path
         id="path218"
         d="m 7808.8759,3933.5852 c -12.2793,-13.3469 -11.7455,-45.38 0.5338,-56.0576 13.881,-12.8132 45.3801,-11.7455 57.1255,1.6017 22.9569,25.6263 5.3388,64.0659 -29.3636,64.0659 -12.2792,0 -22.957,-3.7372 -28.2957,-9.61 z"
         inkscape:connector-curvature="0"
         style="fill:#939296;fill-opacity:1;stroke-width:0.533883" /><path
         id="path220"
         d="m 7471.4621,3884.468 c -23.4909,-25.6263 -5.3389,-64.0659 29.8974,-64.0659 22.9568,0 36.8379,14.4149 36.8379,37.3719 0,7.4743 -3.7372,19.2197 -8.5421,25.6263 -10.6777,15.4826 -44.3123,16.5504 -58.1932,1.0677 z"
         inkscape:connector-curvature="0"
         style="fill:#939296;fill-opacity:1;stroke-width:0.533883" /><path
         id="path222"
         d="m 8592.6156,3860.4433 c -7.4744,-6.9404 -13.3472,-19.2198 -13.3472,-26.694 0,-18.6859 98.7684,-243.4505 110.5137,-251.9927 13.8811,-10.6776 42.7106,-8.5421 54.99,3.7372 6.4066,6.4066 10.6776,17.6181 10.6776,29.3636 0,23.4908 -91.8277,236.5099 -107.3104,249.857 -16.0164,13.3472 -40.0412,11.7455 -55.5237,-4.2711 z"
         inkscape:connector-curvature="0"
         style="fill:#939296;fill-opacity:1;stroke-width:0.533883" /><path
         id="path224"
         d="m 6911.4191,3851.3673 c -7.4743,-6.9405 -41.1089,-57.6593 -75.2774,-113.717 -68.337,-113.1831 -74.2097,-130.8012 -47.5156,-151.6226 18.1521,-13.8809 34.1685,-14.4148 51.7867,-0.5339 7.4743,5.8727 42.1767,57.1254 76.8791,113.717 51.7866,84.3535 62.998,106.2427 62.998,123.3269 0,36.8379 -40.575,53.9222 -68.8708,28.8296 z"
         inkscape:connector-curvature="0"
         style="fill:#939296;fill-opacity:1;stroke-width:0.533883" /><path
         id="path226"
         d="m 7806.2065,3833.2154 c -15.4827,-10.6777 -16.5505,-44.3123 -1.0678,-58.1933 25.6264,-23.4908 64.0659,-5.3387 64.0659,29.8975 0,22.9569 -14.4148,36.8378 -37.3718,36.8378 -7.4743,0 -19.2198,-3.7371 -25.6263,-8.542 z"
         inkscape:connector-curvature="0"
         style="fill:#939296;fill-opacity:1;stroke-width:0.533883" /><path
         id="path228"
         d="m 7447.4373,3788.3693 c -12.2792,-12.2795 -14.4147,-41.109 -3.7372,-54.9901 11.2116,-14.9486 36.304,-17.0842 53.3883,-3.7371 28.2958,22.423 13.347,69.4047 -22.9569,69.4047 -9.0761,0 -20.8215,-4.8049 -26.6942,-10.6775 z"
         inkscape:connector-curvature="0"
         style="fill:#939296;fill-opacity:1;stroke-width:0.533883" /><path
         id="path230"
         d="m 7806.2065,3729.6421 c -20.8215,-8.5421 -26.1603,-33.1007 -33.1008,-161.7664 -5.8727,-111.0476 -5.8727,-122.2592 2.1356,-135.0723 18.152,-26.6942 52.3205,-27.2281 69.9386,-0.534 8.0082,12.8132 16.5504,110.5138 19.7536,227.4341 1.0678,48.5833 1.0678,50.1849 -13.347,62.4643 -16.0165,13.347 -25.6264,14.9487 -45.38,7.4743 z"
         inkscape:connector-curvature="0"
         style="fill:#939296;fill-opacity:1;stroke-width:0.533883" /><path
         id="path232"
         d="m 7415.9382,3682.6605 c -9.0759,-6.9405 -19.2198,-36.838 -43.2445,-126.5303 -17.6181,-64.5997 -32.0329,-124.9285 -32.0329,-134.0045 0,-37.3718 43.7784,-56.5916 69.9386,-30.4313 11.7454,11.7454 73.6757,230.6373 74.2097,261.0686 0,33.1007 -42.7107,51.7867 -68.8709,29.8975 z"
         inkscape:connector-curvature="0"
         style="fill:#939296;fill-opacity:1;stroke-width:0.533883" /></g></g></g></svg>
