<?xml version="1.0" encoding="UTF-8" standalone="no"?>
<svg
   xmlns:dc="http://purl.org/dc/elements/1.1/"
   xmlns:cc="http://creativecommons.org/ns#"
   xmlns:rdf="http://www.w3.org/1999/02/22-rdf-syntax-ns#"
   xmlns:svg="http://www.w3.org/2000/svg"
   xmlns="http://www.w3.org/2000/svg"
   xmlns:sodipodi="http://sodipodi.sourceforge.net/DTD/sodipodi-0.dtd"
   xmlns:inkscape="http://www.inkscape.org/namespaces/inkscape"
   xml:space="preserve"
   enable-background="new 0 0 226.027 46.575"
   viewBox="0 0 35.333002 35.335"
   height="9.3490524mm"
   width="9.3485231mm"
   y="0px"
   x="0px"
   id="Layer_1"
   version="1.1"
   sodipodi:docname="logo.svg"
   inkscape:version="0.92.2 5c3e80d, 2017-08-06"><sodipodi:namedview
     pagecolor="#ffffff"
     bordercolor="#666666"
     borderopacity="1"
     objecttolerance="10"
     gridtolerance="10"
     guidetolerance="10"
     inkscape:pageopacity="0"
     inkscape:pageshadow="2"
     inkscape:window-width="640"
     inkscape:window-height="480"
     id="namedview18"
     showgrid="false"
     inkscape:zoom="1.4334571"
     inkscape:cx="103.2905"
     inkscape:cy="16.7095"
     inkscape:window-x="0"
     inkscape:window-y="0"
     inkscape:window-maximized="0"
     inkscape:current-layer="Layer_1"
     units="mm"
     width="94mm"
     fit-margin-top="0"
     fit-margin-left="0"
     fit-margin-right="0"
     fit-margin-bottom="0" /><metadata
     id="metadata3872"><rdf:RDF><cc:Work
         rdf:about=""><dc:format>image/svg+xml</dc:format><dc:type
           rdf:resource="http://purl.org/dc/dcmitype/StillImage" /><dc:title></dc:title></cc:Work></rdf:RDF></metadata><defs
     id="defs3870" /><path
     id="path3865"
     d="M 17.664,0 C 7.908,0 0,7.912 0,17.668 c 0,9.757 7.908,17.667 17.664,17.667 9.757,0 17.669,-7.91 17.669,-17.667 C 35.333,7.912 27.421,0 17.664,0 Z m -4.387,24.816 c -1.495,0 -2.71,-1.213 -2.71,-2.707 0,-1.498 1.215,-2.707 2.71,-2.707 1.494,0 2.709,1.209 2.709,2.707 -0.001,1.494 -1.215,2.707 -2.709,2.707 z m 0,-8.88 c -1.495,0 -2.71,-1.212 -2.71,-2.706 0,-1.498 1.215,-2.708 2.71,-2.708 1.494,0 2.709,1.21 2.709,2.708 -0.001,1.494 -1.215,2.706 -2.709,2.706 z m 8.78,8.88 c -1.494,0 -2.709,-1.213 -2.709,-2.707 0,-1.498 1.215,-2.707 2.709,-2.707 1.494,0 2.709,1.209 2.709,2.707 0,1.494 -1.215,2.707 -2.709,2.707 z m 0,-8.88 c -1.494,0 -2.709,-1.212 -2.709,-2.706 0,-1.498 1.215,-2.708 2.709,-2.708 1.494,0 2.709,1.21 2.709,2.708 0,1.494 -1.215,2.706 -2.709,2.706 z"
     inkscape:connector-curvature="0" /></svg>