<?xml version="1.0" encoding="UTF-8"?>
<!-- Created with Inkscape (http://www.inkscape.org/) -->
<svg width="144mm" height="144mm" version="1.1" viewBox="0 0 144 144" xmlns="http://www.w3.org/2000/svg" xmlns:cc="http://creativecommons.org/ns#" xmlns:dc="http://purl.org/dc/elements/1.1/" xmlns:rdf="http://www.w3.org/1999/02/22-rdf-syntax-ns#">
  <metadata>
    <rdf:RDF>
      <cc:Work rdf:about="">
        <dc:format>image/svg+xml</dc:format>
        <dc:type rdf:resource="http://purl.org/dc/dcmitype/StillImage"/>
      </cc:Work>
    </rdf:RDF>
  </metadata>
  <g transform="translate(25.355 -9.505)">
    <g transform="matrix(.035278 0 0 -.035278 -119.35 299.89)" fill="#009688">
      <g transform="matrix(.54926 0 0 .54926 1200.9 3710.2)">
        <path d="m5532.3 4072.5c46.961-75.811 106.9-145.48 179.5-205.66 65.4-54.291 155.09-105.71 237.34-136.81 21.479-8.1474 295.83-72.012 611.95-142.59l607.05-127.78 249.03 296.57-315.52 66.548c-163.57 36.69-297.06 67.963-296.78 69.231 0.6724 1.5139 10.737 12.246 22.988 23.815 12.25 11.569 38.807 40.906 58.624 65.428 100.17 120.03 163.71 265.26 183.82 417.24 43.892 330.76-104.11 647.64-384.89 823.83-49.87 31.496-124.02 66.103-175.89 82.732-18.594 6.1681-286.88 67.344-596.03 136.35l-515.27 117.84-264.63-296.57 250.12-59.03c163.16-38.507 297.06-67.963 296.78-69.231-0.6724-1.514-10.737-12.246-22.987-23.815-12.251-11.569-38.807-40.906-58.624-65.428-235.23-283.4-250.81-675.27-66.574-972.68zm314.31 199.63c-13.863 22.27-25.604 45.009-34.216 66.918-37.202 93.913-43.648 183.92-19.316 282.01 19.186 79.6 46.324 133.78 94.432 190.91 112.99 134.14 291.52 192.32 462.13 151.39 82.136-19.755 150.25-56.012 214.65-114.74 39.326-35.457 103.75-137.14 119.02-187.84 47.512-154.82 18.225-318.06-79.166-439.05-157.37-195.44-443.29-229.19-645.96-75.854-40.3 30.556-81.073 77.269-111.57 126.26z" fill="#f79256" stroke-width=".45945"/>
        <g transform="matrix(-.98785 .15584 -.15541 -.9906 13286 7741.6)">
          <g fill="#7dcfb6">
            <path d="m5928.9 7940.1c-6.2691-2.51-17.165-15.55-25.392-28.548-12.84-22.723-12.224-38.803 10.711-206.58 13.411-100.35 26.137-188.65 28.683-195.85 5.8851-20.021 46.358-45.945 69.49-45.588 10.676 0.1645 30.373 7.7083 43.883 17.57 30.62 22.193 30.908 39.091 1.6231 251.82-26.137 188.65-34.691 208.63-87.142 210.23-16.89 0.5441-35.602-1.3532-41.857-3.0586z" stroke-width=".84601"/>
            <path d="m5984.5 7385.6c-21-23-22-71-1-100 20-28 83-31 107-4 23 25 22 85-1 105-25 23-85 22-105-1z"/>
            <path d="m7336 7658c-22-19-36-62-88-254-55-208-60-235-49-262 24-57 106-65 138-13 19 30 123 429 123 471 0 74-70 106-124 58z"/>
            <path d="m4125 7635c-31-30-32-69-4-114 45-74 242-347 263-363 52-42 126-5 126 63 0 27-26 70-135 223-74 105-145 196-157 203-35 19-67 15-93-12z"/>
            <path d="m6625 7576c-28-28-31-47-45-308-11-206-7-238 29-257 31-17 79-13 100 8 23 23 27 53 41 318 11 208 8 232-37 252-37 17-62 13-88-13z"/>
            <path d="m6040.5 7216.6c-27-5-53-39-53-69 0-12 9-33 21-48 41-52 129-22 129 45 0 49-45 82-97 72z"/>
            <path d="m5156 7309c-19-15-26-30-26-55 0-36 169-435 197-466 23-26 87-24 114 3 17 17 20 30 16 63-7 60-171 426-202 454-32 28-65 28-99 1z"/>
            <path d="m6063.6 7014.6c-8.4646-3.6896-22.35-13.208-30.098-21.947-18.575-18.951-17.184-33.384 32.955-389.73 37.26-263.29 38.722-270.5 58.482-286.93 35.732-28.561 87.96-15.799 105.22 25.531 5.4915 13.052-3.648 96.753-32.223 308.12-42.163 310.19-46.52 334.71-67.033 352.58-17.483 14.284-48.077 19.779-67.306 12.379z" stroke-width=".74396"/>
            <path d="m8225 7223c-33-8-40-18-165-223-129-213-142-248-100-290 25-25 80-26 108-2 30 25 251 393 258 429 10 50-47 99-101 86z"/>
            <path d="m9103 7127c-20-11-127-122-295-305-36-38-48-59-48-82 0-44 15-66 52-79 26-9 37-8 63 6 33 19 311 308 332 346 20 35 15 76-12 102-26 27-58 31-92 12z"/>
            <path d="m4505 7095c-14-13-25-36-25-50 0-33 42-75 75-75s75 42 75 75-42 75-75 75c-14 0-37-11-50-25z"/>
            <path d="m7172 7024c-33-23-31-86 5-114 47-37 113-4 113 57 0 62-65 94-118 57z"/>
            <path d="m4610 6933c-25-32-21-79 7-100 46-35 123 0 123 55 0 68-88 98-130 45z"/>
            <path d="m6595 6915c-48-47-16-125 52-125 32 0 73 42 73 75 0 14-11 37-25 50-13 14-36 25-50 25s-37-11-50-25z"/>
            <path d="m7135 6848c-29-16-35-28-35-70s27-68 72-68c65 0 93 89 42 129-30 24-50 26-79 9z"/>
            <path d="m4744 6786c-38-17-58-64-43-103 11-28 446-647 493-700 30-35 77-44 116-23 27 14 43 71 30 104-5 15-119 181-252 368-194 274-248 343-274 354-39 16-32 16-70 0z"/>
            <path d="m6586 6729c-52-41-19-129 49-129 32 0 64 30 71 67 5 26 1 37-19 57-31 31-65 33-101 5z"/>
            <path d="m5417 6702c-10-10-17-33-17-50 0-61 66-93 118-56 28 20 31 83 4 107-25 23-85 22-105-1z"/>
            <path d="m4055 6685c-27-26-32-67-12-101 17-30 313-306 350-327 58-32 117 3 117 70 0 38-6 45-235 258-147 137-173 148-220 100z"/>
          </g>
          <path d="m7074 6645c-12-8-26-27-33-42-6-15-58-206-116-423-90-336-105-400-97-427l10-33h-158v33c0 17 9 186 20 375 13 221 16 351 10 367-30 80-150 66-165-21-3-16-12-162-20-324s-18-325-21-362l-6-68h-79c-43 0-79 2-79 4 0 33-45 298-53 316-24 50-102 52-134 4-15-24-16-37-5-133 7-58 15-125 19-148l6-43h-191l-132 303c-72 166-141 312-152 325-27 28-76 29-112 1-47-37-38-75 88-364l113-260-86-3c-47-2-88-7-91-13-4-5-21 9-39 31-28 35-37 40-71 40-50 0-80-27-80-72 0-23 14-54 45-99 41-61 44-69 34-93-7-14-16-26-21-26-4 0-120 105-256 233-285 268-296 277-332 277-59 0-103-66-80-121 7-15 137-145 291-289 153-144 279-266 279-270s-24-49-52-99c-38-66-57-90-67-86-8 3-133 78-277 166s-275 164-291 168c-57 17-113-25-113-83 0-43 47-80 290-227 129-78 252-153 273-166l38-24-35-62c-19-34-41-66-48-71-9-5-125 22-316 73-166 45-317 81-335 81-45 0-75-24-83-65-7-38 11-76 45-95 11-5 147-44 303-86s285-78 287-80c2-1-18-41-44-87l-47-85-61-4c-47-4-64-9-78-27-28-34-24-77 8-109 15-15 26-33 25-40-2-7 11-37 27-66 17-29 31-56 31-60 0-3-11-6-25-6-62 0-89-90-39-129 15-12 33-21 40-21 25 0 62 22 71 43 9 19 14 14 47-46 21-38 36-71 32-74-3-3-166-63-363-134-380-136-403-148-403-208 0-37 33-78 69-86 22-5 113 24 381 120 194 69 355 123 357 121s-17-12-43-22c-98-37-131-98-85-155 27-34 79-29 174 15 43 20 84 36 92 36 7 0 24-20 38-44 21-37 22-46 10-61-36-50 10-125 77-125 13 0 34-26 69-86 28-47 51-87 51-89s-88-97-195-212c-108-114-198-218-201-230-15-58 25-113 83-113 40 0 66 23 299 273l110 117 82-142-19-32c-28-46-25-100 7-125 50-39 96-20 155 65l31 45 139-2c101-1 139-4 136-12-2-7-10-45-17-85-11-59-11-77 0-97 16-30 62-47 95-35 33 13 49 41 79 141l26 86 59 2c58 2 59 2 66-28 4-17 18-40 32-51 50-39 112-18 133 44 16 50 46 45 53-9 30-221 117-814 123-828 8-21 54-47 83-47 11 0 33 12 50 26 24 20 31 34 31 61 0 20-20 181-45 359-25 177-48 354-51 393l-7 71h249c137 0 254 4 260 8s21 26 35 50l24 44 26-30c15-17 105-140 199-274 208-293 213-298 260-298s78 23 86 65c8 44 4 49-183 313-81 114-178 251-215 306l-67 98 30 52c17 28 38 66 46 84 9 17 19 32 22 32s58-47 121-105 126-108 139-112c31-8 72 15 88 49 22 44 0 78-133 203-68 64-124 121-124 126s24-4 53-21c81-45 133-39 157 20 18 44-1 81-65 125l-52 37 74 128 75 128 53-5c48-5 56-3 79 20 44 44 29 121-25 139-11 4-10 12 6 42 11 21 25 40 31 43 6 2 183-5 393-16 470-26 456-26 481-1 43 43 33 116-18 140-17 8-157 19-377 31-192 11-363 22-380 24-25 4-36 17-67 74l-38 68 48 6c264 33 571 81 590 93 48 31 53 93 12 134-14 14-34 20-68 20-38 0-542-65-653-84-24-4-33 9-148 209-68 118-120 218-117 224 4 6 142 106 307 223 166 117 312 224 325 237 52 51 14 141-59 141-41 0-63-14-412-263-205-146-262-182-268-171s5 29 37 64c52 55 70 92 60 124-12 38-35 56-76 56-30 0-47-8-78-36-46-42-45-42-89 42l-24 44 101 167c56 93 148 246 206 342 119 195 129 231 80 270-31 24-81 27-109 7-11-8-101-147-200-309-112-184-184-292-189-286-6 5-72 9-148 9h-138l10 25c21 56 220 814 220 839 0 60-84 98-136 61zm528-1672 388-671-388-671-387-671-780 3-780 2-386 670c-350 605-386 671-374 690 7 11 180 310 385 665s374 648 377 653c2 4 354 6 781 5l776-3z" fill="#008dad"/>
          <g fill="#7dcfb6">
            <path d="m7861 6643c-11-10-24-32-27-50-5-26-1-37 19-57 31-31 65-33 101-5 19 15 26 30 26 54 0 61-73 96-119 58z"/>
            <path d="m8646 6639c-54-43-23-129 47-129 43 0 67 26 67 73 0 27-7 41-26 56-15 12-34 21-44 21s-29-9-44-21z"/>
            <path d="m5495 6525c-39-38-28-93 22-114 76-31 139 62 80 117-31 29-72 28-102-3z"/>
            <path d="m8516 6499c-51-40-23-129 42-129 46 0 72 25 72 70 0 30-6 43-26 59-15 12-34 21-44 21s-29-9-44-21z"/>
            <path d="m7785 6490c-75-29-59-140 20-140 40 0 75 35 75 77 0 47-51 81-95 63z"/>
            <path d="m8346 6358c-52-48-559-594-578-623-43-67 15-147 94-130 19 5 91 74 246 238 421 449 382 402 382 451 0 32-6 48-23 64-31 30-88 29-121 0z"/>
            <path d="m9050 6273c-30-12-380-265-395-286-46-66 22-145 98-113 44 18 374 253 392 279 45 65-21 148-95 120z"/>
            <path d="m4553 6248c-25-12-45-60-36-86 19-53 84-71 123-32 56 56-15 154-87 118z"/>
            <path d="m6142 6217c-28-30-29-80-2-107 48-48 139-2 126 63-12 64-82 88-124 44z"/>
            <path d="m4703 6120c-75-30-57-140 24-140 20 0 41 8 53 20 53 53-8 147-77 120z"/>
            <path d="m3725 5999c-53-30-61-90-17-131 15-14 110-76 212-137 196-118 226-128 271-92 29 23 31 81 4 111s-390 250-422 255c-15 3-37 0-48-6z"/>
            <path d="m5345 5890c-42-46-10-120 52-120s94 65 57 118c-20 29-83 31-109 2z"/>
            <path d="m8499 5872c-49-40-15-125 50-125 42 0 71 28 71 70 0 64-70 96-121 55z"/>
            <path d="m8342 5757c-27-28-28-67-4-95 32-38 101-30 121 14 34 75-61 141-117 81z"/>
            <path d="m9540 5736c-85-31-397-170-414-185-64-56-14-158 68-137 14 3 114 45 223 91 202 88 243 114 243 160 0 28-36 71-65 79-11 3-36-1-55-8z"/>
            <path d="m4261 5634c-12-15-21-34-21-44s9-29 21-44c43-54 129-23 129 47 0 43-26 67-73 67-27 0-41-7-56-26z"/>
            <path d="m7627 5572c-27-30-22-87 9-111 15-12 34-21 44-21s29 9 44 21c33 26 36 79 6 109-26 26-81 26-103 2z"/>
            <path d="m4427 5542c-23-25-22-85 1-105 25-22 74-21 103 1 28 23 30 73 4 102-24 26-85 27-108 2z"/>
            <path d="m8960 5473c-51-19-68-85-30-123 45-45 120-11 120 53 0 47-49 85-90 70z"/>
            <path d="m8755 5375c-49-48-19-119 50-119 43 0 75 30 75 71 0 32-42 73-75 73-14 0-37-11-50-25z"/>
            <path d="m8535 5295c-233-95-722-316-741-334-53-51-17-141 57-141 45 0 807 331 832 361 26 33 22 76-12 110-36 35-58 36-136 4z"/>
            <path d="m3383 5238c-47-23-53-105-9-133 27-18 429-127 473-128 42-1 83 36 83 74 0 60-27 74-270 139-123 33-231 60-240 59-8 0-25-5-37-11z"/>
            <path d="m4023 5070c-70-29-45-140 32-140 38 0 75 37 75 75 0 49-59 85-107 65z"/>
            <path d="m4197 5010c-36-28-38-91-5-114 53-37 118-5 118 57 0 61-66 94-113 57z"/>
            <path d="m9419 4840c-258-36-267-38-290-61-39-39-16-121 37-132 15-3 133 10 262 28 262 37 276 43 276 110 0 40-25 70-64 78-14 2-113-8-221-23z"/>
            <path d="m8943 4758c-30-15-46-58-34-91 12-30 39-47 75-47 63 0 90 89 40 129-29 23-48 25-81 9z"/>
            <path d="m8742 4724c-16-11-22-25-22-53 0-46 16-69 55-77 46-9 85 26 85 76 0 44-26 70-70 70-14 0-36-7-48-16z"/>
            <path d="m2578.2 4626.9c-25.834-3.6592-57.675-46.162-57.306-77.104 0.1428-11.978 9.6601-35.053 21.855-50.18l21.57-26.225 229.42-17.923c209.98-15.677 230.32-15.939 251.4-1.2408 29.329 20.58 41.83 57.344 30.369 88.429-17.221 49.122-42.262 56.431-218.93 68.685-91.57 6.1688-185.93 13.372-211.83 15.701-24.981 2.3176-55.485 2.7103-66.541-0.1413z" stroke-width=".96046"/>
            <path d="m3145 4555c-45-44-22-109 42-121 67-13 110 77 60 124-31 29-72 28-102-3z"/>
            <path d="m3335 4545c-14-13-25-36-25-50s11-37 25-50c13-14 36-25 50-25s37 11 50 25c34 33 33 77-1 104-35 28-69 26-99-4z"/>
            <path d="m3554 4548c-22-10-44-47-44-74 0-25 28-71 47-78 26-11 871-57 900-50 54 14 73 102 29 143-30 28-28 28-450 51-402 22-452 23-482 8z"/>
            <path d="m4616 4469c-36-28-36-80 0-108 54-42 118-13 118 54s-64 96-118 54z"/>
            <path d="m8993 4250c-45-18-55-72-22-114 41-52 129-22 129 45 0 52-57 90-107 69z"/>
            <path d="m9178 4235c-16-9-29-27-33-46-15-69 69-117 121-68 63 59-12 156-88 114z"/>
            <path d="m9372 4217c-22-23-28-60-16-92 14-35 56-43 297-56 233-12 238-12 265 8 45 33 42 102-6 127-17 9-93 18-212 25-276 17-302 16-328-12z"/>
            <path d="m4230 4114c-168-23-343-48-390-55-70-10-89-16-112-40-35-35-37-78-5-115 31-36 40-36 442 20 182 26 350 49 375 52 116 15 151 37 153 98 1 25-6 43-23 61-32 34-65 32-440-21z"/>
            <path d="m3543 4010c-70-29-45-140 32-140 86 0 99 126 15 144-14 3-35 1-47-4z"/>
            <path d="m8063 4e3c-26-11-43-40-43-74 0-63 89-90 129-40 12 15 21 33 21 40 0 29-25 64-53 74-16 5-30 10-31 9-1 0-11-4-23-9z"/>
            <path d="m3335 3965c-14-13-25-36-25-50s11-37 25-50c13-14 36-25 50-25s37 11 50 25c14 13 25 36 25 50s-11 37-25 50c-13 14-36 25-50 25s-37-11-50-25z"/>
            <path d="m2920 3938c-217-31-246-40-263-91-11-35 10-79 46-91 26-9 163 5 434 45 87 14 113 33 113 89 0 30-6 43-26 59-33 26-48 26-304-11z"/>
            <path d="m8285 3949c-32-19-45-41-45-79 0-68 10-73 452-192 222-59 418-108 436-108 76 0 112 114 49 154-20 13-768 218-842 231-16 3-39 0-50-6z"/>
            <path d="m9276 3644c-23-23-29-59-15-86 16-31 28-38 67-38 61 0 93 66 56 118-18 27-84 31-108 6z"/>
            <path d="m4773 3640c-46-19-57-83-20-118 39-37 99-24 118 25 13 35-4 77-37 92-29 13-31 13-61 1z"/>
            <path d="m9490 3613c-53-19-70-98-28-127 30-22 81-20 101 2 22 25 22 85 0 104s-53 28-73 21z"/>
            <path d="m4060 3580c-45-45-13-123 50-123 16 0 39 8 50 18 26 24 27 85 2 108s-78 21-102-3z"/>
            <path d="m4170 3395c-206-90-387-174-402-188-39-34-38-79 2-119 25-25 37-30 63-25 49 8 810 344 824 364 21 28 16 87-10 111-44 42-76 33-477-143z"/>
            <path d="m9661 3542c-40-31-22-121 26-136 93-28 437-116 456-116 13 0 36 9 51 21 33 26 37 86 6 114-24 22-427 135-481 135-20 0-47-8-58-18z"/>
            <path d="m3895 3528c-28-16-35-28-35-65 0-80 104-103 135-30 30 71-35 132-100 95z"/>
            <path d="m7846 3479c-51-40-23-129 42-129 54 1 91 53 71 101-21 52-68 63-113 28z"/>
            <path d="m3690 3463c-298-106-405-145-420-153-25-13-41-65-30-95 5-13 21-32 36-41 32-22 43-19 300 73 206 73 234 91 234 147s-60 90-120 69z"/>
            <path d="m5112 3460c-22-9-42-46-42-76 0-25 47-64 78-64 36 0 72 37 72 74 0 31-40 76-67 75-10 0-28-4-41-9z"/>
            <path d="m8037 3370c-33-26-41-63-22-104 12-25 46-51 148-113 486-296 595-360 616-366 31-8 86 15 100 41 17 32 13 69-11 96-19 21-634 402-727 450-40 21-73 20-104-4z"/>
            <path d="m4841 3285c-287-195-628-446-639-469-19-42-14-65 18-98 26-26 36-30 65-25 23 4 140 81 362 238 180 127 343 246 361 262 41 39 44 86 7 122-40 41-81 34-174-30z"/>
            <path d="m3575 3120c-42-46-10-120 52-120s94 65 57 118c-20 29-83 31-109 2z"/>
            <path d="m7866 3118c-36-51-5-121 52-121 42 0 72 28 72 67 0 50-24 76-70 76-29 0-43-6-54-22z"/>
            <path d="m3406 3049c-36-28-36-80 0-108 54-42 118-13 118 54s-64 96-118 54z"/>
            <path d="m8054 2986c-35-16-44-32-44-83 0-43 10-53 377-396 178-167 272-247 292-252 65-14 122 51 100 114-6 18-117 130-296 298-157 147-300 280-318 295-41 34-72 41-111 24z"/>
            <path d="m3039.3 2902c-217.86-97.034-248.95-118.89-238.99-171.9 7.9522-39.008 39.24-66.12 76.266-66.273 35.077-0.1452 409.54 163.2 444.49 194.03 53.4 46.748 18.942 134.83-52.177 133.13-16.564 0.069-119.68-39.478-229.58-88.991z" stroke-width=".98677"/>
            <path d="m8944 2819c-22-11-44-48-44-73 0-7 9-25 21-40 43-54 129-23 129 47 0 54-58 89-106 66z"/>
            <path d="m6385 2758c-28-16-35-28-35-65 0-83 111-101 139-23 24 69-41 124-104 88z"/>
            <path d="m5492 2737c-13-13-22-36-22-54 0-65 82-90 127-39 30 35 29 61-2 91-31 32-74 33-103 2z"/>
            <path d="m4075 2730c-77-30-56-140 26-140 39 0 69 32 69 73 0 51-50 86-95 67z"/>
            <path d="m9120 2723c-53-20-70-98-28-127 52-37 118-4 118 59 0 31-21 65-40 65-5 0-14 2-22 4-7 3-20 2-28-1z"/>
            <path d="m7205 2689c-32-18-45-40-45-78 0-44 321-786 355-820 50-51 145-14 145 55 0 31-334 802-358 826-22 23-72 31-97 17z"/>
            <path d="m4912 2663c-51-44-18-133 48-133 65 0 93 78 45 125-28 29-65 32-93 8z"/>
            <path d="m6025 2630c-49-19-64-82-30-120 24-26 79-26 105 0 53 53-6 148-75 120z"/>
            <path d="m3913 2620c-72-29-48-140 30-140 81 0 100 113 24 140-16 5-30 10-31 9-1 0-11-4-23-9z"/>
            <path d="m9265 2595c-32-31-32-76-2-109 37-41 387-248 428-253 70-10 115 69 71 124-15 19-311 206-392 248-42 22-77 19-105-10z"/>
            <path d="m5359 2546c-43-43-453-728-457-763-3-26 2-39 26-63 34-33 74-39 109-15 19 13 434 682 463 747 39 85-75 161-141 94z"/>
            <path d="m6374 2536c-17-8-36-26-42-42-11-28-52-669-52-819 0-42 4-85 10-95 14-26 71-43 103-31 52 20 54 31 76 431 27 477 27 514 1 540-11 11-24 20-29 20s-15 2-23 5c-7 2-27-2-44-9z"/>
            <path d="m4783 2525c-29-20-37-59-19-94 25-47 79-56 114-18 61 65-22 163-95 112z"/>
            <path d="m3674 2463c-139-95-319-227-331-242-7-9-13-31-13-48 0-45 30-73 78-73 31 0 65 21 226 134 104 74 195 145 202 158 20 35 17 66-11 93-37 37-72 32-151-22z"/>
            <path d="m5938 2400c-14-10-30-32-36-47-27-69-212-786-212-821 0-50 32-82 82-82 69 0 70 0 188 440 60 223 110 424 110 447 0 33-5 46-26 62-33 26-74 27-106 1z"/>
            <path d="m4638 2372c-38-24-311-319-325-350-27-58 8-112 71-112 45 0 40-5 277 252 91 98 99 111 99 147 0 68-64 101-122 63z"/>
            <path d="m7886 2339c-52-41-20-129 48-129 34 0 76 41 76 75 0 33-41 75-73 75-13 0-36-9-51-21z"/>
            <path d="m8790 2233c-40-52-9-117 56-117 67 0 99 77 51 122-33 31-80 29-107-5z"/>
            <path d="m7992 2177c-45-48-18-117 48-117 43 0 67 18 76 57 16 64-77 110-124 60z"/>
            <path d="m8931 2104c-42-54-13-118 54-118s96 64 54 118c-15 19-30 26-54 26s-39-7-54-26z"/>
            <path d="m8135 2029c-54-31-58-74-14-145 67-105 249-352 265-358 60-23 114 10 114 70 0 30-20 65-121 208-67 94-133 183-148 198-31 32-68 42-96 27z"/>
            <path d="m9082 1967c-14-14-22-36-22-58 0-31 13-47 137-167 184-178 227-212 267-212 43 0 76 35 76 81 0 30-11 45-107 137-207 199-260 242-296 242-22 0-41-8-55-23z"/>
            <path d="m6751 1891c-24-24-27-52-10-84 16-30 28-37 66-37 93 0 93 130 0 138-26 2-42-3-56-17z"/>
            <path d="m6810 1723c-33-12-50-37-50-73 0-46 25-70 72-70 44 0 68 25 68 72 0 48-48 86-90 71z"/>
            <path d="m7597 1702c-10-10-17-33-17-50 0-61 66-93 118-56 28 20 31 83 4 107-25 23-85 22-105-1z"/>
            <path d="m4843 1670c-75-30-57-140 24-140 87 0 102 120 18 143-11 3-30 2-42-3z"/>
            <path d="m7675 1525c-39-38-28-93 22-114 78-32 142 67 77 118-35 28-69 26-99-4z"/>
            <path d="m6817 1509c-39-23-40-53-6-299 31-226 34-236 61-264 24-23 34-27 61-22 43 8 67 39 67 86 0 21-14 132-30 246-34 233-43 257-101 261-19 2-42-2-52-8z"/>
            <path d="m4716 1491c-25-27-24-78 2-103 26-26 75-28 102-3 26 24 27 85 2 108s-85 22-106-2z"/>
            <path d="m6287 1472c-23-25-22-85 1-105 26-24 85-22 107 3 43 48 10 120-55 120-23 0-43-7-53-18z"/>
            <path d="m5655 1380c-44-48-10-120 56-120 43 0 69 27 69 70 0 14-7 36-16 48-20 29-83 31-109 2z"/>
            <path d="m7755 1335c-14-13-25-36-25-50 0-35 185-456 207-472 26-20 80-16 103 7 12 12 20 33 20 55 0 44-172 443-201 468-30 25-75 22-104-8z"/>
            <path d="m4606 1318c-14-13-77-108-141-213-128-212-139-245-89-284 34-26 64-27 97-1 14 11 79 107 144 213 97 158 118 199 118 231 0 69-76 101-129 54z"/>
            <path d="m6282 1284c-29-20-31-83-2-109 48-44 120-10 120 56 0 43-27 69-70 69-14 0-36-7-48-16z"/>
            <path d="m5610 1200c-23-23-27-77-7-103 21-28 68-32 100-7 53 42 25 130-43 130-17 0-39-9-50-20z"/>
            <path d="m6282 1090c-39-16-49-62-62-303-11-208-11-229 4-253 34-50 98-51 131-1 15 24 31 207 37 426 2 91 2 94-25 117-30 25-48 28-85 14z"/>
            <path d="m5551 1002c-17-13-36-69-81-237-33-121-60-234-60-251 0-70 82-106 131-57 22 22 138 432 139 489 0 62-80 97-129 56z"/>
          </g>
        </g>
      </g>
    </g>
  </g>
</svg>
