<?xml version="1.0" encoding="UTF-8" standalone="no"?>
<!-- Created with Inkscape (http://www.inkscape.org/) -->

<svg
   xmlns:dc="http://purl.org/dc/elements/1.1/"
   xmlns:cc="http://creativecommons.org/ns#"
   xmlns:rdf="http://www.w3.org/1999/02/22-rdf-syntax-ns#"
   xmlns:svg="http://www.w3.org/2000/svg"
   xmlns="http://www.w3.org/2000/svg"
   xmlns:sodipodi="http://sodipodi.sourceforge.net/DTD/sodipodi-0.dtd"
   xmlns:inkscape="http://www.inkscape.org/namespaces/inkscape"
   width="262mm"
   height="262mm"
   viewBox="0 0 262 262.00001"
   version="1.1"
   id="svg827"
   inkscape:version="0.92.3 (2405546, 2018-03-11)"
   sodipodi:docname="logo.svg"
   inkscape:export-filename="/home/matthias/Development/Laniakea/laniakea-logo.png"
   inkscape:export-xdpi="51"
   inkscape:export-ydpi="51">
  <defs
     id="defs821" />
  <sodipodi:namedview
     id="base"
     pagecolor="#ffffff"
     bordercolor="#666666"
     borderopacity="1.0"
     inkscape:pageopacity="0.0"
     inkscape:pageshadow="2"
     inkscape:zoom="2.8"
     inkscape:cx="662.65923"
     inkscape:cy="952.91998"
     inkscape:document-units="mm"
     inkscape:current-layer="g1054"
     showgrid="true"
     inkscape:window-width="1920"
     inkscape:window-height="1016"
     inkscape:window-x="0"
     inkscape:window-y="0"
     inkscape:window-maximized="1"
     fit-margin-top="0"
     fit-margin-left="0"
     fit-margin-right="0"
     fit-margin-bottom="0">
    <inkscape:grid
       type="xygrid"
       id="grid1760"
       originx="25.355251"
       originy="-26.053785" />
  </sodipodi:namedview>
  <metadata
     id="metadata824">
    <rdf:RDF>
      <cc:Work
         rdf:about="">
        <dc:format>image/svg+xml</dc:format>
        <dc:type
           rdf:resource="http://purl.org/dc/dcmitype/StillImage" />
        <dc:title></dc:title>
      </cc:Work>
    </rdf:RDF>
  </metadata>
  <g
     inkscape:label="Ebene 1"
     inkscape:groupmode="layer"
     id="layer1"
     transform="translate(25.355252,-8.9462373)">
    <g
       style="fill:#009688;stroke:none"
       transform="matrix(0.03527778,0,0,-0.03527778,-119.34878,299.89217)"
       id="g234">
      <g
         id="g1294">
        <path
           id="path4-8"
           d="m 5537.4292,4052.5592 c 46.9612,-75.8113 106.9044,-145.4826 179.501,-205.6586 65.4004,-54.2906 155.0866,-105.7054 237.3419,-136.8071 21.4792,-8.1474 295.8253,-72.0124 611.9482,-142.5862 l 572.6515,-127.7827 264.6249,296.5747 -296.7134,66.5481 c -163.5737,36.6896 -297.0641,67.9628 -296.7796,69.2307 0.6724,1.5139 10.7367,12.2456 22.9875,23.8146 12.2505,11.5692 38.8068,40.9058 58.6241,65.4276 100.173,120.0345 163.7107,265.2612 183.8154,417.239 43.8921,330.7648 -104.1129,647.644 -384.8947,823.827 -49.8703,31.4961 -124.0155,66.1031 -175.8883,82.7324 -18.5935,6.1681 -286.8828,67.3438 -596.0321,136.3532 l -561.869,125.3641 -264.6285,-296.569 296.7169,-66.5538 c 163.5734,-36.6898 297.0642,-67.9626 296.7797,-69.2307 -0.6724,-1.514 -10.7367,-12.2456 -22.9873,-23.8147 -12.2506,-11.569 -38.8071,-40.9056 -58.6241,-65.4275 -235.2291,-283.3996 -250.8058,-675.2679 -66.5741,-972.6811 z m 314.3063,199.6261 c -13.8633,22.2697 -25.6039,45.0094 -34.216,66.9183 -37.2019,93.913 -43.6482,183.9222 -19.3159,282.0124 19.1859,79.6002 46.3244,133.7784 94.432,190.91 112.9925,134.1397 291.52,192.3202 462.1329,151.3881 82.1363,-19.7549 150.2475,-56.0117 214.6523,-114.7402 39.3262,-35.4572 103.7515,-137.1408 119.0151,-187.8436 47.5118,-154.825 18.2252,-318.0622 -79.1662,-439.0536 -157.3731,-195.4368 -443.2928,-229.1889 -645.9614,-75.8539 -40.3005,30.5565 -81.073,77.269 -111.5728,126.2625 z"
           style="fill:#f79256;fill-opacity:1;stroke-width:0.45944929"
           inkscape:connector-curvature="0" />
        <g
           transform="rotate(171.0595,6340.5731,4390.8332)"
           style="fill:#008dad;fill-opacity:1"
           id="g1725">
          <g
             id="g1054">
            <path
               id="path2"
               d="m 5928.947,7940.089 c -6.2691,-2.51 -17.1648,-15.5496 -25.3915,-28.548 -12.8396,-22.7231 -12.2242,-38.803 10.7109,-206.5844 13.4106,-100.3525 26.1373,-188.6483 28.6829,-195.8493 5.8851,-20.0211 46.3585,-45.945 69.4905,-45.5883 10.6764,0.1645 30.3731,7.7083 43.8831,17.5703 30.6198,22.1926 30.9078,39.0911 1.6231,251.825 -26.1373,188.6483 -34.6914,208.6283 -87.1422,210.2333 -16.8905,0.5441 -35.6016,-1.3532 -41.8568,-3.0586 z"
               inkscape:connector-curvature="0"
               style="fill:#7dcfb6;fill-opacity:1;stroke-width:0.84601134" />
            <path
               id="path4"
               d="m 5984.4668,7385.5956 c -21,-23 -22,-71 -1,-100 20,-28 83,-31 107,-4 23,25 22,85 -1,105 -25,23 -85,22 -105,-1 z"
               inkscape:connector-curvature="0"
               style="fill:#7dcfb6;fill-opacity:1" />
            <path
               id="path6"
               d="m 7336,7658 c -22,-19 -36,-62 -88,-254 -55,-208 -60,-235 -49,-262 24,-57 106,-65 138,-13 19,30 123,429 123,471 0,74 -70,106 -124,58 z"
               inkscape:connector-curvature="0"
               style="fill:#7dcfb6;fill-opacity:1" />
            <path
               id="path8"
               d="m 4125,7635 c -31,-30 -32,-69 -4,-114 45,-74 242,-347 263,-363 52,-42 126,-5 126,63 0,27 -26,70 -135,223 -74,105 -145,196 -157,203 -35,19 -67,15 -93,-12 z"
               inkscape:connector-curvature="0"
               style="fill:#7dcfb6;fill-opacity:1" />
            <path
               id="path10"
               d="m 6625,7576 c -28,-28 -31,-47 -45,-308 -11,-206 -7,-238 29,-257 31,-17 79,-13 100,8 23,23 27,53 41,318 11,208 8,232 -37,252 -37,17 -62,13 -88,-13 z"
               inkscape:connector-curvature="0"
               style="fill:#7dcfb6;fill-opacity:1" />
            <path
               id="path12"
               d="m 6040.4668,7216.5956 c -27,-5 -53,-39 -53,-69 0,-12 9,-33 21,-48 41,-52 129,-22 129,45 0,49 -45,82 -97,72 z"
               inkscape:connector-curvature="0"
               style="fill:#7dcfb6;fill-opacity:1" />
            <path
               id="path14"
               d="m 5156,7309 c -19,-15 -26,-30 -26,-55 0,-36 169,-435 197,-466 23,-26 87,-24 114,3 17,17 20,30 16,63 -7,60 -171,426 -202,454 -32,28 -65,28 -99,1 z"
               inkscape:connector-curvature="0"
               style="fill:#7dcfb6;fill-opacity:1" />
            <path
               id="path16"
               d="m 6063.591,7014.6033 c -8.4646,-3.6896 -22.3499,-13.2077 -30.0977,-21.9468 -18.5752,-18.9513 -17.1843,-33.384 32.9546,-389.7299 37.26,-263.29 38.7219,-270.4995 58.4822,-286.9293 35.7319,-28.5609 87.9599,-15.799 105.2221,25.5311 5.4915,13.0519 -3.648,96.7526 -32.2231,308.1182 -42.1633,310.1932 -46.5201,334.7106 -67.0326,352.578 -17.4828,14.2843 -48.0774,19.7794 -67.3055,12.3787 z"
               inkscape:connector-curvature="0"
               style="fill:#7dcfb6;fill-opacity:1;stroke-width:0.74396074" />
            <path
               id="path18"
               d="m 8225,7223 c -33,-8 -40,-18 -165,-223 -129,-213 -142,-248 -100,-290 25,-25 80,-26 108,-2 30,25 251,393 258,429 10,50 -47,99 -101,86 z"
               inkscape:connector-curvature="0"
               style="fill:#7dcfb6;fill-opacity:1" />
            <path
               id="path20"
               d="m 9103,7127 c -20,-11 -127,-122 -295,-305 -36,-38 -48,-59 -48,-82 0,-44 15,-66 52,-79 26,-9 37,-8 63,6 33,19 311,308 332,346 20,35 15,76 -12,102 -26,27 -58,31 -92,12 z"
               inkscape:connector-curvature="0"
               style="fill:#7dcfb6;fill-opacity:1" />
            <path
               id="path22"
               d="m 4505,7095 c -14,-13 -25,-36 -25,-50 0,-33 42,-75 75,-75 33,0 75,42 75,75 0,33 -42,75 -75,75 -14,0 -37,-11 -50,-25 z"
               inkscape:connector-curvature="0"
               style="fill:#7dcfb6;fill-opacity:1" />
            <path
               id="path24"
               d="m 7172,7024 c -33,-23 -31,-86 5,-114 47,-37 113,-4 113,57 0,62 -65,94 -118,57 z"
               inkscape:connector-curvature="0"
               style="fill:#7dcfb6;fill-opacity:1" />
            <path
               id="path26"
               d="m 4610,6933 c -25,-32 -21,-79 7,-100 46,-35 123,0 123,55 0,68 -88,98 -130,45 z"
               inkscape:connector-curvature="0"
               style="fill:#7dcfb6;fill-opacity:1" />
            <path
               id="path28"
               d="m 6595,6915 c -48,-47 -16,-125 52,-125 32,0 73,42 73,75 0,14 -11,37 -25,50 -13,14 -36,25 -50,25 -14,0 -37,-11 -50,-25 z"
               inkscape:connector-curvature="0"
               style="fill:#7dcfb6;fill-opacity:1" />
            <path
               id="path30"
               d="m 7135,6848 c -29,-16 -35,-28 -35,-70 0,-42 27,-68 72,-68 65,0 93,89 42,129 -30,24 -50,26 -79,9 z"
               inkscape:connector-curvature="0"
               style="fill:#7dcfb6;fill-opacity:1" />
            <path
               id="path32"
               d="m 4744,6786 c -38,-17 -58,-64 -43,-103 11,-28 446,-647 493,-700 30,-35 77,-44 116,-23 27,14 43,71 30,104 -5,15 -119,181 -252,368 -194,274 -248,343 -274,354 -39,16 -32,16 -70,0 z"
               inkscape:connector-curvature="0"
               style="fill:#7dcfb6;fill-opacity:1" />
            <path
               id="path34"
               d="m 6586,6729 c -52,-41 -19,-129 49,-129 32,0 64,30 71,67 5,26 1,37 -19,57 -31,31 -65,33 -101,5 z"
               inkscape:connector-curvature="0"
               style="fill:#7dcfb6;fill-opacity:1" />
            <path
               id="path36"
               d="m 5417,6702 c -10,-10 -17,-33 -17,-50 0,-61 66,-93 118,-56 28,20 31,83 4,107 -25,23 -85,22 -105,-1 z"
               inkscape:connector-curvature="0"
               style="fill:#7dcfb6;fill-opacity:1" />
            <path
               id="path38"
               d="m 4055,6685 c -27,-26 -32,-67 -12,-101 17,-30 313,-306 350,-327 58,-32 117,3 117,70 0,38 -6,45 -235,258 -147,137 -173,148 -220,100 z"
               inkscape:connector-curvature="0"
               style="fill:#7dcfb6;fill-opacity:1" />
            <path
               id="path40"
               d="m 7074,6645 c -12,-8 -26,-27 -33,-42 -6,-15 -58,-206 -116,-423 -90,-336 -105,-400 -97,-427 l 10,-33 h -79 -79 v 33 c 0,17 9,186 20,375 13,221 16,351 10,367 -30,80 -150,66 -165,-21 -3,-16 -12,-162 -20,-324 -8,-162 -18,-325 -21,-362 l -6,-68 h -79 c -43,0 -79,2 -79,4 0,33 -45,298 -53,316 -24,50 -102,52 -134,4 -15,-24 -16,-37 -5,-133 7,-58 15,-125 19,-148 l 6,-43 h -95 -96 l -132,303 c -72,166 -141,312 -152,325 -27,28 -76,29 -112,1 -47,-37 -38,-75 88,-364 l 113,-260 -86,-3 c -47,-2 -88,-7 -91,-13 -4,-5 -21,9 -39,31 -28,35 -37,40 -71,40 -50,0 -80,-27 -80,-72 0,-23 14,-54 45,-99 41,-61 44,-69 34,-93 -7,-14 -16,-26 -21,-26 -4,0 -120,105 -256,233 -285,268 -296,277 -332,277 -59,0 -103,-66 -80,-121 7,-15 137,-145 291,-289 153,-144 279,-266 279,-270 0,-4 -24,-49 -52,-99 -38,-66 -57,-90 -67,-86 -8,3 -133,78 -277,166 -144,88 -275,164 -291,168 -57,17 -113,-25 -113,-83 0,-43 47,-80 290,-227 129,-78 252,-153 273,-166 l 38,-24 -35,-62 c -19,-34 -41,-66 -48,-71 -9,-5 -125,22 -316,73 -166,45 -317,81 -335,81 -45,0 -75,-24 -83,-65 -7,-38 11,-76 45,-95 11,-5 147,-44 303,-86 156,-42 285,-78 287,-80 2,-1 -18,-41 -44,-87 l -47,-85 -61,-4 c -47,-4 -64,-9 -78,-27 -28,-34 -24,-77 8,-109 15,-15 26,-33 25,-40 -2,-7 11,-37 27,-66 17,-29 31,-56 31,-60 0,-3 -11,-6 -25,-6 -62,0 -89,-90 -39,-129 15,-12 33,-21 40,-21 25,0 62,22 71,43 9,19 14,14 47,-46 21,-38 36,-71 32,-74 -3,-3 -166,-63 -363,-134 -380,-136 -403,-148 -403,-208 0,-37 33,-78 69,-86 22,-5 113,24 381,120 194,69 355,123 357,121 2,-2 -17,-12 -43,-22 -98,-37 -131,-98 -85,-155 27,-34 79,-29 174,15 43,20 84,36 92,36 7,0 24,-20 38,-44 21,-37 22,-46 10,-61 -36,-50 10,-125 77,-125 13,0 34,-26 69,-86 28,-47 51,-87 51,-89 0,-2 -88,-97 -195,-212 -108,-114 -198,-218 -201,-230 -15,-58 25,-113 83,-113 40,0 66,23 299,273 l 110,117 41,-71 41,-71 -19,-32 c -28,-46 -25,-100 7,-125 50,-39 96,-20 155,65 l 31,45 139,-2 c 101,-1 139,-4 136,-12 -2,-7 -10,-45 -17,-85 -11,-59 -11,-77 0,-97 16,-30 62,-47 95,-35 33,13 49,41 79,141 l 26,86 59,2 c 58,2 59,2 66,-28 4,-17 18,-40 32,-51 50,-39 112,-18 133,44 16,50 46,45 53,-9 30,-221 117,-814 123,-828 8,-21 54,-47 83,-47 11,0 33,12 50,26 24,20 31,34 31,61 0,20 -20,181 -45,359 -25,177 -48,354 -51,393 l -7,71 h 249 c 137,0 254,4 260,8 6,4 21,26 35,50 l 24,44 26,-30 c 15,-17 105,-140 199,-274 208,-293 213,-298 260,-298 47,0 78,23 86,65 8,44 4,49 -183,313 -81,114 -178,251 -215,306 l -67,98 30,52 c 17,28 38,66 46,84 9,17 19,32 22,32 3,0 58,-47 121,-105 63,-58 126,-108 139,-112 31,-8 72,15 88,49 22,44 0,78 -133,203 -68,64 -124,121 -124,126 0,5 24,-4 53,-21 81,-45 133,-39 157,20 18,44 -1,81 -65,125 l -52,37 74,128 75,128 53,-5 c 48,-5 56,-3 79,20 44,44 29,121 -25,139 -11,4 -10,12 6,42 11,21 25,40 31,43 6,2 183,-5 393,-16 470,-26 456,-26 481,-1 43,43 33,116 -18,140 -17,8 -157,19 -377,31 -192,11 -363,22 -380,24 -25,4 -36,17 -67,74 l -38,68 48,6 c 264,33 571,81 590,93 48,31 53,93 12,134 -14,14 -34,20 -68,20 -38,0 -542,-65 -653,-84 -24,-4 -33,9 -148,209 -68,118 -120,218 -117,224 4,6 142,106 307,223 166,117 312,224 325,237 52,51 14,141 -59,141 -41,0 -63,-14 -412,-263 -205,-146 -262,-182 -268,-171 -6,11 5,29 37,64 52,55 70,92 60,124 -12,38 -35,56 -76,56 -30,0 -47,-8 -78,-36 -46,-42 -45,-42 -89,42 l -24,44 101,167 c 56,93 148,246 206,342 119,195 129,231 80,270 -31,24 -81,27 -109,7 -11,-8 -101,-147 -200,-309 -112,-184 -184,-292 -189,-286 -6,5 -72,9 -148,9 h -138 l 10,25 c 21,56 220,814 220,839 0,60 -84,98 -136,61 z m 528,-1672 388,-671 -388,-671 -387,-671 -780,3 -780,2 -386,670 c -350,605 -386,671 -374,690 7,11 180,310 385,665 205,355 374,648 377,653 2,4 354,6 781,5 l 776,-3 z"
               inkscape:connector-curvature="0"
               style="fill:#008dad;fill-opacity:1" />
            <path
               id="path44"
               d="m 7861,6643 c -11,-10 -24,-32 -27,-50 -5,-26 -1,-37 19,-57 31,-31 65,-33 101,-5 19,15 26,30 26,54 0,61 -73,96 -119,58 z"
               inkscape:connector-curvature="0"
               style="fill:#7dcfb6;fill-opacity:1" />
            <path
               id="path46"
               d="m 8646,6639 c -54,-43 -23,-129 47,-129 43,0 67,26 67,73 0,27 -7,41 -26,56 -15,12 -34,21 -44,21 -10,0 -29,-9 -44,-21 z"
               inkscape:connector-curvature="0"
               style="fill:#7dcfb6;fill-opacity:1" />
            <path
               id="path48"
               d="m 5495,6525 c -39,-38 -28,-93 22,-114 76,-31 139,62 80,117 -31,29 -72,28 -102,-3 z"
               inkscape:connector-curvature="0"
               style="fill:#7dcfb6;fill-opacity:1" />
            <path
               id="path50"
               d="m 8516,6499 c -51,-40 -23,-129 42,-129 46,0 72,25 72,70 0,30 -6,43 -26,59 -15,12 -34,21 -44,21 -10,0 -29,-9 -44,-21 z"
               inkscape:connector-curvature="0"
               style="fill:#7dcfb6;fill-opacity:1" />
            <path
               id="path52"
               d="m 7785,6490 c -75,-29 -59,-140 20,-140 40,0 75,35 75,77 0,47 -51,81 -95,63 z"
               inkscape:connector-curvature="0"
               style="fill:#7dcfb6;fill-opacity:1" />
            <path
               id="path54"
               d="m 8346,6358 c -52,-48 -559,-594 -578,-623 -43,-67 15,-147 94,-130 19,5 91,74 246,238 421,449 382,402 382,451 0,32 -6,48 -23,64 -31,30 -88,29 -121,0 z"
               inkscape:connector-curvature="0"
               style="fill:#7dcfb6;fill-opacity:1" />
            <path
               id="path56"
               d="m 9050,6273 c -30,-12 -380,-265 -395,-286 -46,-66 22,-145 98,-113 44,18 374,253 392,279 45,65 -21,148 -95,120 z"
               inkscape:connector-curvature="0"
               style="fill:#7dcfb6;fill-opacity:1" />
            <path
               id="path58"
               d="m 4553,6248 c -25,-12 -45,-60 -36,-86 19,-53 84,-71 123,-32 56,56 -15,154 -87,118 z"
               inkscape:connector-curvature="0"
               style="fill:#7dcfb6;fill-opacity:1" />
            <path
               id="path60"
               d="m 6142,6217 c -28,-30 -29,-80 -2,-107 48,-48 139,-2 126,63 -12,64 -82,88 -124,44 z"
               inkscape:connector-curvature="0"
               style="fill:#7dcfb6;fill-opacity:1" />
            <path
               id="path62"
               d="m 4703,6120 c -75,-30 -57,-140 24,-140 20,0 41,8 53,20 53,53 -8,147 -77,120 z"
               inkscape:connector-curvature="0"
               style="fill:#7dcfb6;fill-opacity:1" />
            <path
               id="path64"
               d="m 3725,5999 c -53,-30 -61,-90 -17,-131 15,-14 110,-76 212,-137 196,-118 226,-128 271,-92 29,23 31,81 4,111 -27,30 -390,250 -422,255 -15,3 -37,0 -48,-6 z"
               inkscape:connector-curvature="0"
               style="fill:#7dcfb6;fill-opacity:1" />
            <path
               id="path66"
               d="m 5345,5890 c -42,-46 -10,-120 52,-120 62,0 94,65 57,118 -20,29 -83,31 -109,2 z"
               inkscape:connector-curvature="0"
               style="fill:#7dcfb6;fill-opacity:1" />
            <path
               id="path68"
               d="m 8499,5872 c -49,-40 -15,-125 50,-125 42,0 71,28 71,70 0,64 -70,96 -121,55 z"
               inkscape:connector-curvature="0"
               style="fill:#7dcfb6;fill-opacity:1" />
            <path
               id="path70"
               d="m 8342,5757 c -27,-28 -28,-67 -4,-95 32,-38 101,-30 121,14 34,75 -61,141 -117,81 z"
               inkscape:connector-curvature="0"
               style="fill:#7dcfb6;fill-opacity:1" />
            <path
               id="path72"
               d="m 9540,5736 c -85,-31 -397,-170 -414,-185 -64,-56 -14,-158 68,-137 14,3 114,45 223,91 202,88 243,114 243,160 0,28 -36,71 -65,79 -11,3 -36,-1 -55,-8 z"
               inkscape:connector-curvature="0"
               style="fill:#7dcfb6;fill-opacity:1" />
            <path
               id="path74"
               d="m 4261,5634 c -12,-15 -21,-34 -21,-44 0,-10 9,-29 21,-44 43,-54 129,-23 129,47 0,43 -26,67 -73,67 -27,0 -41,-7 -56,-26 z"
               inkscape:connector-curvature="0"
               style="fill:#7dcfb6;fill-opacity:1" />
            <path
               id="path76"
               d="m 7627,5572 c -27,-30 -22,-87 9,-111 15,-12 34,-21 44,-21 10,0 29,9 44,21 33,26 36,79 6,109 -26,26 -81,26 -103,2 z"
               inkscape:connector-curvature="0"
               style="fill:#7dcfb6;fill-opacity:1" />
            <path
               id="path78"
               d="m 4427,5542 c -23,-25 -22,-85 1,-105 25,-22 74,-21 103,1 28,23 30,73 4,102 -24,26 -85,27 -108,2 z"
               inkscape:connector-curvature="0"
               style="fill:#7dcfb6;fill-opacity:1" />
            <path
               id="path80"
               d="m 8960,5473 c -51,-19 -68,-85 -30,-123 45,-45 120,-11 120,53 0,47 -49,85 -90,70 z"
               inkscape:connector-curvature="0"
               style="fill:#7dcfb6;fill-opacity:1" />
            <path
               id="path82"
               d="m 8755,5375 c -49,-48 -19,-119 50,-119 43,0 75,30 75,71 0,32 -42,73 -75,73 -14,0 -37,-11 -50,-25 z"
               inkscape:connector-curvature="0"
               style="fill:#7dcfb6;fill-opacity:1" />
            <path
               id="path84"
               d="m 8535,5295 c -233,-95 -722,-316 -741,-334 -53,-51 -17,-141 57,-141 45,0 807,331 832,361 26,33 22,76 -12,110 -36,35 -58,36 -136,4 z"
               inkscape:connector-curvature="0"
               style="fill:#7dcfb6;fill-opacity:1" />
            <path
               id="path86"
               d="m 3383,5238 c -47,-23 -53,-105 -9,-133 27,-18 429,-127 473,-128 42,-1 83,36 83,74 0,60 -27,74 -270,139 -123,33 -231,60 -240,59 -8,0 -25,-5 -37,-11 z"
               inkscape:connector-curvature="0"
               style="fill:#7dcfb6;fill-opacity:1" />
            <path
               id="path88"
               d="m 4023,5070 c -70,-29 -45,-140 32,-140 38,0 75,37 75,75 0,49 -59,85 -107,65 z"
               inkscape:connector-curvature="0"
               style="fill:#7dcfb6;fill-opacity:1" />
            <path
               id="path90"
               d="m 4197,5010 c -36,-28 -38,-91 -5,-114 53,-37 118,-5 118,57 0,61 -66,94 -113,57 z"
               inkscape:connector-curvature="0"
               style="fill:#7dcfb6;fill-opacity:1" />
            <path
               id="path92"
               d="m 9419,4840 c -258,-36 -267,-38 -290,-61 -39,-39 -16,-121 37,-132 15,-3 133,10 262,28 262,37 276,43 276,110 0,40 -25,70 -64,78 -14,2 -113,-8 -221,-23 z"
               inkscape:connector-curvature="0"
               style="fill:#7dcfb6;fill-opacity:1" />
            <path
               id="path94"
               d="m 8943,4758 c -30,-15 -46,-58 -34,-91 12,-30 39,-47 75,-47 63,0 90,89 40,129 -29,23 -48,25 -81,9 z"
               inkscape:connector-curvature="0"
               style="fill:#7dcfb6;fill-opacity:1" />
            <path
               id="path96"
               d="m 8742,4724 c -16,-11 -22,-25 -22,-53 0,-46 16,-69 55,-77 46,-9 85,26 85,76 0,44 -26,70 -70,70 -14,0 -36,-7 -48,-16 z"
               inkscape:connector-curvature="0"
               style="fill:#7dcfb6;fill-opacity:1" />
            <path
               id="path98"
               d="m 2578.2042,4626.8887 c -25.8343,-3.6592 -57.6748,-46.1622 -57.3059,-77.1042 0.1428,-11.9775 9.6601,-35.0534 21.8551,-50.1801 l 21.5696,-26.225 229.4177,-17.9234 c 209.9825,-15.6772 230.3183,-15.939 251.3999,-1.2408 29.3293,20.5799 41.8299,57.344 30.3687,88.4287 -17.2214,49.1225 -42.2623,56.4307 -218.9324,68.6851 -91.5704,6.1688 -185.9256,13.3715 -211.8313,15.701 -24.9813,2.3176 -55.4849,2.7103 -66.5414,-0.1413 z"
               inkscape:connector-curvature="0"
               style="fill:#7dcfb6;fill-opacity:1;stroke-width:0.96045792" />
            <path
               id="path100"
               d="m 3145,4555 c -45,-44 -22,-109 42,-121 67,-13 110,77 60,124 -31,29 -72,28 -102,-3 z"
               inkscape:connector-curvature="0"
               style="fill:#7dcfb6;fill-opacity:1" />
            <path
               id="path102"
               d="m 3335,4545 c -14,-13 -25,-36 -25,-50 0,-14 11,-37 25,-50 13,-14 36,-25 50,-25 14,0 37,11 50,25 34,33 33,77 -1,104 -35,28 -69,26 -99,-4 z"
               inkscape:connector-curvature="0"
               style="fill:#7dcfb6;fill-opacity:1" />
            <path
               id="path104"
               d="m 3554,4548 c -22,-10 -44,-47 -44,-74 0,-25 28,-71 47,-78 26,-11 871,-57 900,-50 54,14 73,102 29,143 -30,28 -28,28 -450,51 -402,22 -452,23 -482,8 z"
               inkscape:connector-curvature="0"
               style="fill:#7dcfb6;fill-opacity:1" />
            <path
               id="path106"
               d="m 4616,4469 c -36,-28 -36,-80 0,-108 54,-42 118,-13 118,54 0,67 -64,96 -118,54 z"
               inkscape:connector-curvature="0"
               style="fill:#7dcfb6;fill-opacity:1" />
            <path
               id="path108"
               d="m 8993,4250 c -45,-18 -55,-72 -22,-114 41,-52 129,-22 129,45 0,52 -57,90 -107,69 z"
               inkscape:connector-curvature="0"
               style="fill:#7dcfb6;fill-opacity:1" />
            <path
               id="path110"
               d="m 9178,4235 c -16,-9 -29,-27 -33,-46 -15,-69 69,-117 121,-68 63,59 -12,156 -88,114 z"
               inkscape:connector-curvature="0"
               style="fill:#7dcfb6;fill-opacity:1" />
            <path
               id="path112"
               d="m 9372,4217 c -22,-23 -28,-60 -16,-92 14,-35 56,-43 297,-56 233,-12 238,-12 265,8 45,33 42,102 -6,127 -17,9 -93,18 -212,25 -276,17 -302,16 -328,-12 z"
               inkscape:connector-curvature="0"
               style="fill:#7dcfb6;fill-opacity:1" />
            <path
               id="path114"
               d="m 4230,4114 c -168,-23 -343,-48 -390,-55 -70,-10 -89,-16 -112,-40 -35,-35 -37,-78 -5,-115 31,-36 40,-36 442,20 182,26 350,49 375,52 116,15 151,37 153,98 1,25 -6,43 -23,61 -32,34 -65,32 -440,-21 z"
               inkscape:connector-curvature="0"
               style="fill:#7dcfb6;fill-opacity:1" />
            <path
               id="path116"
               d="m 3543,4010 c -70,-29 -45,-140 32,-140 86,0 99,126 15,144 -14,3 -35,1 -47,-4 z"
               inkscape:connector-curvature="0"
               style="fill:#7dcfb6;fill-opacity:1" />
            <path
               id="path118"
               d="m 8063,4000 c -26,-11 -43,-40 -43,-74 0,-63 89,-90 129,-40 12,15 21,33 21,40 0,29 -25,64 -53,74 -16,5 -30,10 -31,9 -1,0 -11,-4 -23,-9 z"
               inkscape:connector-curvature="0"
               style="fill:#7dcfb6;fill-opacity:1" />
            <path
               id="path120"
               d="m 3335,3965 c -14,-13 -25,-36 -25,-50 0,-14 11,-37 25,-50 13,-14 36,-25 50,-25 14,0 37,11 50,25 14,13 25,36 25,50 0,14 -11,37 -25,50 -13,14 -36,25 -50,25 -14,0 -37,-11 -50,-25 z"
               inkscape:connector-curvature="0"
               style="fill:#7dcfb6;fill-opacity:1" />
            <path
               id="path122"
               d="m 2920,3938 c -217,-31 -246,-40 -263,-91 -11,-35 10,-79 46,-91 26,-9 163,5 434,45 87,14 113,33 113,89 0,30 -6,43 -26,59 -33,26 -48,26 -304,-11 z"
               inkscape:connector-curvature="0"
               style="fill:#7dcfb6;fill-opacity:1" />
            <path
               id="path124"
               d="m 8285,3949 c -32,-19 -45,-41 -45,-79 0,-68 10,-73 452,-192 222,-59 418,-108 436,-108 76,0 112,114 49,154 -20,13 -768,218 -842,231 -16,3 -39,0 -50,-6 z"
               inkscape:connector-curvature="0"
               style="fill:#7dcfb6;fill-opacity:1" />
            <path
               id="path126"
               d="m 9276,3644 c -23,-23 -29,-59 -15,-86 16,-31 28,-38 67,-38 61,0 93,66 56,118 -18,27 -84,31 -108,6 z"
               inkscape:connector-curvature="0"
               style="fill:#7dcfb6;fill-opacity:1" />
            <path
               id="path128"
               d="m 4773,3640 c -46,-19 -57,-83 -20,-118 39,-37 99,-24 118,25 13,35 -4,77 -37,92 -29,13 -31,13 -61,1 z"
               inkscape:connector-curvature="0"
               style="fill:#7dcfb6;fill-opacity:1" />
            <path
               id="path130"
               d="m 9490,3613 c -53,-19 -70,-98 -28,-127 30,-22 81,-20 101,2 22,25 22,85 0,104 -22,19 -53,28 -73,21 z"
               inkscape:connector-curvature="0"
               style="fill:#7dcfb6;fill-opacity:1" />
            <path
               id="path132"
               d="m 4060,3580 c -45,-45 -13,-123 50,-123 16,0 39,8 50,18 26,24 27,85 2,108 -25,23 -78,21 -102,-3 z"
               inkscape:connector-curvature="0"
               style="fill:#7dcfb6;fill-opacity:1" />
            <path
               id="path134"
               d="m 4170,3395 c -206,-90 -387,-174 -402,-188 -39,-34 -38,-79 2,-119 25,-25 37,-30 63,-25 49,8 810,344 824,364 21,28 16,87 -10,111 -44,42 -76,33 -477,-143 z"
               inkscape:connector-curvature="0"
               style="fill:#7dcfb6;fill-opacity:1" />
            <path
               id="path136"
               d="m 9661,3542 c -40,-31 -22,-121 26,-136 93,-28 437,-116 456,-116 13,0 36,9 51,21 33,26 37,86 6,114 -24,22 -427,135 -481,135 -20,0 -47,-8 -58,-18 z"
               inkscape:connector-curvature="0"
               style="fill:#7dcfb6;fill-opacity:1" />
            <path
               id="path138"
               d="m 3895,3528 c -28,-16 -35,-28 -35,-65 0,-80 104,-103 135,-30 30,71 -35,132 -100,95 z"
               inkscape:connector-curvature="0"
               style="fill:#7dcfb6;fill-opacity:1" />
            <path
               id="path140"
               d="m 7846,3479 c -51,-40 -23,-129 42,-129 54,1 91,53 71,101 -21,52 -68,63 -113,28 z"
               inkscape:connector-curvature="0"
               style="fill:#7dcfb6;fill-opacity:1" />
            <path
               id="path142"
               d="m 3690,3463 c -298,-106 -405,-145 -420,-153 -25,-13 -41,-65 -30,-95 5,-13 21,-32 36,-41 32,-22 43,-19 300,73 206,73 234,91 234,147 0,56 -60,90 -120,69 z"
               inkscape:connector-curvature="0"
               style="fill:#7dcfb6;fill-opacity:1" />
            <path
               id="path144"
               d="m 5112,3460 c -22,-9 -42,-46 -42,-76 0,-25 47,-64 78,-64 36,0 72,37 72,74 0,31 -40,76 -67,75 -10,0 -28,-4 -41,-9 z"
               inkscape:connector-curvature="0"
               style="fill:#7dcfb6;fill-opacity:1" />
            <path
               id="path146"
               d="m 8037,3370 c -33,-26 -41,-63 -22,-104 12,-25 46,-51 148,-113 486,-296 595,-360 616,-366 31,-8 86,15 100,41 17,32 13,69 -11,96 -19,21 -634,402 -727,450 -40,21 -73,20 -104,-4 z"
               inkscape:connector-curvature="0"
               style="fill:#7dcfb6;fill-opacity:1" />
            <path
               id="path148"
               d="m 4841,3285 c -287,-195 -628,-446 -639,-469 -19,-42 -14,-65 18,-98 26,-26 36,-30 65,-25 23,4 140,81 362,238 180,127 343,246 361,262 41,39 44,86 7,122 -40,41 -81,34 -174,-30 z"
               inkscape:connector-curvature="0"
               style="fill:#7dcfb6;fill-opacity:1" />
            <path
               id="path150"
               d="m 3575,3120 c -42,-46 -10,-120 52,-120 62,0 94,65 57,118 -20,29 -83,31 -109,2 z"
               inkscape:connector-curvature="0"
               style="fill:#7dcfb6;fill-opacity:1" />
            <path
               id="path152"
               d="m 7866,3118 c -36,-51 -5,-121 52,-121 42,0 72,28 72,67 0,50 -24,76 -70,76 -29,0 -43,-6 -54,-22 z"
               inkscape:connector-curvature="0"
               style="fill:#7dcfb6;fill-opacity:1" />
            <path
               id="path154"
               d="m 3406,3049 c -36,-28 -36,-80 0,-108 54,-42 118,-13 118,54 0,67 -64,96 -118,54 z"
               inkscape:connector-curvature="0"
               style="fill:#7dcfb6;fill-opacity:1" />
            <path
               id="path156"
               d="m 8054,2986 c -35,-16 -44,-32 -44,-83 0,-43 10,-53 377,-396 178,-167 272,-247 292,-252 65,-14 122,51 100,114 -6,18 -117,130 -296,298 -157,147 -300,280 -318,295 -41,34 -72,41 -111,24 z"
               inkscape:connector-curvature="0"
               style="fill:#7dcfb6;fill-opacity:1" />
            <path
               id="path158"
               d="m 3039.2942,2902.0354 c -217.8602,-97.0341 -248.9508,-118.891 -238.9935,-171.8977 7.9522,-39.0075 39.2405,-66.1195 76.266,-66.2728 35.0768,-0.1452 409.538,163.1968 444.4897,194.0319 53.4,46.7483 18.9425,134.8336 -52.1774,133.1294 -16.564,0.069 -119.6843,-39.4784 -229.5848,-88.9908 z"
               inkscape:connector-curvature="0"
               style="fill:#7dcfb6;fill-opacity:1;stroke-width:0.98677289" />
            <path
               id="path160"
               d="m 8944,2819 c -22,-11 -44,-48 -44,-73 0,-7 9,-25 21,-40 43,-54 129,-23 129,47 0,54 -58,89 -106,66 z"
               inkscape:connector-curvature="0"
               style="fill:#7dcfb6;fill-opacity:1" />
            <path
               id="path162"
               d="m 6385,2758 c -28,-16 -35,-28 -35,-65 0,-83 111,-101 139,-23 24,69 -41,124 -104,88 z"
               inkscape:connector-curvature="0"
               style="fill:#7dcfb6;fill-opacity:1" />
            <path
               id="path164"
               d="m 5492,2737 c -13,-13 -22,-36 -22,-54 0,-65 82,-90 127,-39 30,35 29,61 -2,91 -31,32 -74,33 -103,2 z"
               inkscape:connector-curvature="0"
               style="fill:#7dcfb6;fill-opacity:1" />
            <path
               id="path166"
               d="m 4075,2730 c -77,-30 -56,-140 26,-140 39,0 69,32 69,73 0,51 -50,86 -95,67 z"
               inkscape:connector-curvature="0"
               style="fill:#7dcfb6;fill-opacity:1" />
            <path
               id="path168"
               d="m 9120,2723 c -53,-20 -70,-98 -28,-127 52,-37 118,-4 118,59 0,31 -21,65 -40,65 -5,0 -14,2 -22,4 -7,3 -20,2 -28,-1 z"
               inkscape:connector-curvature="0"
               style="fill:#7dcfb6;fill-opacity:1" />
            <path
               id="path170"
               d="m 7205,2689 c -32,-18 -45,-40 -45,-78 0,-44 321,-786 355,-820 50,-51 145,-14 145,55 0,31 -334,802 -358,826 -22,23 -72,31 -97,17 z"
               inkscape:connector-curvature="0"
               style="fill:#7dcfb6;fill-opacity:1" />
            <path
               id="path172"
               d="m 4912,2663 c -51,-44 -18,-133 48,-133 65,0 93,78 45,125 -28,29 -65,32 -93,8 z"
               inkscape:connector-curvature="0"
               style="fill:#7dcfb6;fill-opacity:1" />
            <path
               id="path174"
               d="m 6025,2630 c -49,-19 -64,-82 -30,-120 24,-26 79,-26 105,0 53,53 -6,148 -75,120 z"
               inkscape:connector-curvature="0"
               style="fill:#7dcfb6;fill-opacity:1" />
            <path
               id="path176"
               d="m 3913,2620 c -72,-29 -48,-140 30,-140 81,0 100,113 24,140 -16,5 -30,10 -31,9 -1,0 -11,-4 -23,-9 z"
               inkscape:connector-curvature="0"
               style="fill:#7dcfb6;fill-opacity:1" />
            <path
               id="path178"
               d="m 9265,2595 c -32,-31 -32,-76 -2,-109 37,-41 387,-248 428,-253 70,-10 115,69 71,124 -15,19 -311,206 -392,248 -42,22 -77,19 -105,-10 z"
               inkscape:connector-curvature="0"
               style="fill:#7dcfb6;fill-opacity:1" />
            <path
               id="path180"
               d="m 5359,2546 c -43,-43 -453,-728 -457,-763 -3,-26 2,-39 26,-63 34,-33 74,-39 109,-15 19,13 434,682 463,747 39,85 -75,161 -141,94 z"
               inkscape:connector-curvature="0"
               style="fill:#7dcfb6;fill-opacity:1" />
            <path
               id="path182"
               d="m 6374,2536 c -17,-8 -36,-26 -42,-42 -11,-28 -52,-669 -52,-819 0,-42 4,-85 10,-95 14,-26 71,-43 103,-31 52,20 54,31 76,431 27,477 27,514 1,540 -11,11 -24,20 -29,20 -5,0 -15,2 -23,5 -7,2 -27,-2 -44,-9 z"
               inkscape:connector-curvature="0"
               style="fill:#7dcfb6;fill-opacity:1" />
            <path
               id="path184"
               d="m 4783,2525 c -29,-20 -37,-59 -19,-94 25,-47 79,-56 114,-18 61,65 -22,163 -95,112 z"
               inkscape:connector-curvature="0"
               style="fill:#7dcfb6;fill-opacity:1" />
            <path
               id="path186"
               d="m 3674,2463 c -139,-95 -319,-227 -331,-242 -7,-9 -13,-31 -13,-48 0,-45 30,-73 78,-73 31,0 65,21 226,134 104,74 195,145 202,158 20,35 17,66 -11,93 -37,37 -72,32 -151,-22 z"
               inkscape:connector-curvature="0"
               style="fill:#7dcfb6;fill-opacity:1" />
            <path
               id="path188"
               d="m 5938,2400 c -14,-10 -30,-32 -36,-47 -27,-69 -212,-786 -212,-821 0,-50 32,-82 82,-82 69,0 70,0 188,440 60,223 110,424 110,447 0,33 -5,46 -26,62 -33,26 -74,27 -106,1 z"
               inkscape:connector-curvature="0"
               style="fill:#7dcfb6;fill-opacity:1" />
            <path
               id="path190"
               d="m 4638,2372 c -38,-24 -311,-319 -325,-350 -27,-58 8,-112 71,-112 45,0 40,-5 277,252 91,98 99,111 99,147 0,68 -64,101 -122,63 z"
               inkscape:connector-curvature="0"
               style="fill:#7dcfb6;fill-opacity:1" />
            <path
               id="path192"
               d="m 7886,2339 c -52,-41 -20,-129 48,-129 34,0 76,41 76,75 0,33 -41,75 -73,75 -13,0 -36,-9 -51,-21 z"
               inkscape:connector-curvature="0"
               style="fill:#7dcfb6;fill-opacity:1" />
            <path
               id="path194"
               d="m 8790,2233 c -40,-52 -9,-117 56,-117 67,0 99,77 51,122 -33,31 -80,29 -107,-5 z"
               inkscape:connector-curvature="0"
               style="fill:#7dcfb6;fill-opacity:1" />
            <path
               id="path196"
               d="m 7992,2177 c -45,-48 -18,-117 48,-117 43,0 67,18 76,57 16,64 -77,110 -124,60 z"
               inkscape:connector-curvature="0"
               style="fill:#7dcfb6;fill-opacity:1" />
            <path
               id="path198"
               d="m 8931,2104 c -42,-54 -13,-118 54,-118 67,0 96,64 54,118 -15,19 -30,26 -54,26 -24,0 -39,-7 -54,-26 z"
               inkscape:connector-curvature="0"
               style="fill:#7dcfb6;fill-opacity:1" />
            <path
               id="path200"
               d="m 8135,2029 c -54,-31 -58,-74 -14,-145 67,-105 249,-352 265,-358 60,-23 114,10 114,70 0,30 -20,65 -121,208 -67,94 -133,183 -148,198 -31,32 -68,42 -96,27 z"
               inkscape:connector-curvature="0"
               style="fill:#7dcfb6;fill-opacity:1" />
            <path
               id="path202"
               d="m 9082,1967 c -14,-14 -22,-36 -22,-58 0,-31 13,-47 137,-167 184,-178 227,-212 267,-212 43,0 76,35 76,81 0,30 -11,45 -107,137 -207,199 -260,242 -296,242 -22,0 -41,-8 -55,-23 z"
               inkscape:connector-curvature="0"
               style="fill:#7dcfb6;fill-opacity:1" />
            <path
               id="path204"
               d="m 6751,1891 c -24,-24 -27,-52 -10,-84 16,-30 28,-37 66,-37 93,0 93,130 0,138 -26,2 -42,-3 -56,-17 z"
               inkscape:connector-curvature="0"
               style="fill:#7dcfb6;fill-opacity:1" />
            <path
               id="path206"
               d="m 6810,1723 c -33,-12 -50,-37 -50,-73 0,-46 25,-70 72,-70 44,0 68,25 68,72 0,48 -48,86 -90,71 z"
               inkscape:connector-curvature="0"
               style="fill:#7dcfb6;fill-opacity:1" />
            <path
               id="path208"
               d="m 7597,1702 c -10,-10 -17,-33 -17,-50 0,-61 66,-93 118,-56 28,20 31,83 4,107 -25,23 -85,22 -105,-1 z"
               inkscape:connector-curvature="0"
               style="fill:#7dcfb6;fill-opacity:1" />
            <path
               id="path210"
               d="m 4843,1670 c -75,-30 -57,-140 24,-140 87,0 102,120 18,143 -11,3 -30,2 -42,-3 z"
               inkscape:connector-curvature="0"
               style="fill:#7dcfb6;fill-opacity:1" />
            <path
               id="path212"
               d="m 7675,1525 c -39,-38 -28,-93 22,-114 78,-32 142,67 77,118 -35,28 -69,26 -99,-4 z"
               inkscape:connector-curvature="0"
               style="fill:#7dcfb6;fill-opacity:1" />
            <path
               id="path214"
               d="m 6817,1509 c -39,-23 -40,-53 -6,-299 31,-226 34,-236 61,-264 24,-23 34,-27 61,-22 43,8 67,39 67,86 0,21 -14,132 -30,246 -34,233 -43,257 -101,261 -19,2 -42,-2 -52,-8 z"
               inkscape:connector-curvature="0"
               style="fill:#7dcfb6;fill-opacity:1" />
            <path
               id="path216"
               d="m 4716,1491 c -25,-27 -24,-78 2,-103 26,-26 75,-28 102,-3 26,24 27,85 2,108 -25,23 -85,22 -106,-2 z"
               inkscape:connector-curvature="0"
               style="fill:#7dcfb6;fill-opacity:1" />
            <path
               id="path218"
               d="m 6287,1472 c -23,-25 -22,-85 1,-105 26,-24 85,-22 107,3 43,48 10,120 -55,120 -23,0 -43,-7 -53,-18 z"
               inkscape:connector-curvature="0"
               style="fill:#7dcfb6;fill-opacity:1" />
            <path
               id="path220"
               d="m 5655,1380 c -44,-48 -10,-120 56,-120 43,0 69,27 69,70 0,14 -7,36 -16,48 -20,29 -83,31 -109,2 z"
               inkscape:connector-curvature="0"
               style="fill:#7dcfb6;fill-opacity:1" />
            <path
               id="path222"
               d="m 7755,1335 c -14,-13 -25,-36 -25,-50 0,-35 185,-456 207,-472 26,-20 80,-16 103,7 12,12 20,33 20,55 0,44 -172,443 -201,468 -30,25 -75,22 -104,-8 z"
               inkscape:connector-curvature="0"
               style="fill:#7dcfb6;fill-opacity:1" />
            <path
               id="path224"
               d="m 4606,1318 c -14,-13 -77,-108 -141,-213 -128,-212 -139,-245 -89,-284 34,-26 64,-27 97,-1 14,11 79,107 144,213 97,158 118,199 118,231 0,69 -76,101 -129,54 z"
               inkscape:connector-curvature="0"
               style="fill:#7dcfb6;fill-opacity:1" />
            <path
               id="path226"
               d="m 6282,1284 c -29,-20 -31,-83 -2,-109 48,-44 120,-10 120,56 0,43 -27,69 -70,69 -14,0 -36,-7 -48,-16 z"
               inkscape:connector-curvature="0"
               style="fill:#7dcfb6;fill-opacity:1" />
            <path
               id="path228"
               d="m 5610,1200 c -23,-23 -27,-77 -7,-103 21,-28 68,-32 100,-7 53,42 25,130 -43,130 -17,0 -39,-9 -50,-20 z"
               inkscape:connector-curvature="0"
               style="fill:#7dcfb6;fill-opacity:1" />
            <path
               id="path230"
               d="m 6282,1090 c -39,-16 -49,-62 -62,-303 -11,-208 -11,-229 4,-253 34,-50 98,-51 131,-1 15,24 31,207 37,426 2,91 2,94 -25,117 -30,25 -48,28 -85,14 z"
               inkscape:connector-curvature="0"
               style="fill:#7dcfb6;fill-opacity:1" />
            <path
               id="path232"
               d="m 5551,1002 c -17,-13 -36,-69 -81,-237 -33,-121 -60,-234 -60,-251 0,-70 82,-106 131,-57 22,22 138,432 139,489 0,62 -80,97 -129,56 z"
               inkscape:connector-curvature="0"
               style="fill:#7dcfb6;fill-opacity:1" />
          </g>
        </g>
      </g>
    </g>
  </g>
</svg>
