<svg version="1.1" id="Layer_1" xmlns="http://www.w3.org/2000/svg" xmlns:xlink="http://www.w3.org/1999/xlink" x="0px" y="0px"
	 width="205px" height="45px" viewBox="0 0 205 45" enable-background="new 0 0 205 45" xml:space="preserve">
<g>
	<path fill="#030104" d="M61.847,41.264H2.5V3.736h59.347V41.264z M9.482,34.283h45.383V10.719H9.482V34.283z"/>
	<g enable-background="new    ">
		<path fill="#030104" d="M78.431,9.201L88.479,9.16c6.867-0.027,10.994,3.278,11.017,8.88c0.024,6.026-4.771,10.025-12.064,10.055
			l-2.212,0.009l0.032,7.882l-6.713,0.027L78.431,9.201z M85.167,15.045l0.029,7.187l3.413-0.014
			c2.406-0.01,3.913-1.329,3.904-3.492c-0.008-2.241-1.838-3.702-4.554-3.69L85.167,15.045z"/>
		<path fill="#030104" d="M108.611,27.197c0.005,1.393,0.324,3.128,2.534,3.119c1.01-0.004,1.899-0.392,2.634-0.975L113.73,16.94
			l6.713-0.027l0.075,18.93l-4.851,0.021l-1.057-2.47c-1.545,1.747-3.676,2.72-6.003,2.729c-4.035,0.015-6.685-2.832-6.702-7.391
			l-0.047-11.745l6.711-0.027L108.611,27.197z"/>
		<path fill="#030104" d="M124.673,16.896l5.239-0.021l0.593,2.933c1.388-1.976,3.518-3.104,5.769-3.113
			c1.164-0.005,2.444,0.3,3.377,0.836l-1.49,5.725c-0.815-0.422-1.98-0.688-2.989-0.683c-1.436,0.005-2.752,0.629-3.756,1.714
			l0.046,11.513l-6.712,0.027L124.673,16.896z"/>
		<path fill="#030104" d="M141.137,10.416c-0.008-2.317,1.537-3.869,3.826-3.878c2.289-0.01,3.847,1.53,3.857,3.848
			c0.008,2.279-1.537,3.83-3.826,3.84S141.147,12.695,141.137,10.416z M141.63,16.828l6.712-0.027l0.075,18.931l-6.712,0.027
			L141.63,16.828z"/>
		<path fill="#030104" d="M151.516,34.675l1.417-4.757c1.983,0.688,4.39,1.141,6.059,1.135c1.668-0.007,2.712-0.514,2.708-1.247
			c-0.009-2.319-9.93,0.272-9.959-7.03c-0.018-4.134,3.156-6.388,9.051-6.411c2.29-0.01,4.813,0.329,6.679,0.901l-1.262,4.832
			c-1.903-0.454-3.767-0.718-5.28-0.711c-1.861,0.007-2.79,0.396-2.788,1.053c0.011,2.163,10.165-0.079,10.194,7.146
			c0.017,4.094-3.232,6.465-8.975,6.488C156.605,36.086,153.693,35.556,151.516,34.675z"/>
		<path fill="#030104" d="M171.155,16.709l4.849-0.02l0.979,2.275c1.585-1.628,3.755-2.525,6.121-2.535
			c2.6-0.011,4.581,1.024,5.792,2.912c1.545-1.822,3.79-2.951,6.507-2.962c4.344-0.017,7.033,2.947,7.052,7.775l0.046,11.358
			l-6.712,0.027l-0.04-10.239c-0.006-1.622-0.518-3.126-2.844-3.116c-1.049,0.004-1.979,0.317-2.793,0.898
			c0.042,0.349,0.042,0.735,0.044,1.121l0.047,11.358l-6.673,0.025l-0.042-10.238c-0.004-1.429-0.4-3.126-2.882-3.116
			c-0.971,0.004-1.901,0.278-2.713,0.861l0.051,12.517l-6.713,0.026L171.155,16.709z"/>
	</g>
</g>
</svg>
